<?xml version="1.0" encoding="utf-8"?>
<!-- Generator: Adobe Illustrator 16.0.4, SVG Export Plug-In . SVG Version: 6.00 Build 0)  -->
<!DOCTYPE svg PUBLIC "-//W3C//DTD SVG 1.1//EN" "http://www.w3.org/Graphics/SVG/1.1/DTD/svg11.dtd">
<svg version="1.1" id="Ebene_1" xmlns="http://www.w3.org/2000/svg" xmlns:xlink="http://www.w3.org/1999/xlink" x="0px" y="0px"
	 width="192px" height="192px" viewBox="0 0 192 192" enable-background="new 0 0 192 192" xml:space="preserve">
<path d="M138.296,134.386H82.028v15.067h56.268V134.386z M138.296,88.438H82.028v15.068h56.268V88.438z
	 M64.87,64.175v-2.821c0-0.773-0.588-1.361-1.368-1.361h-4.991V33.996c0-0.773-0.602-1.375-1.368-1.375H53.49
	c-0.415,0-0.866,0.072-1.096,0.172l-6.288,1.261c-0.895,0.286-1.074,0.874-1.074,1.317v2.836c0,0.788,0.494,1.304,1.547,1.361
	l5.815-1.232v21.656h-5.543c-0.78,0-1.368,0.588-1.368,1.361v2.821c0,0.788,0.588,1.375,1.368,1.375h16.65
	C64.282,65.55,64.87,64.963,64.87,64.175 M64.927,86.447c0-6.961-4.089-8.365-10.699-8.365c-2.306,0-5.342,0.401-7.24,0.96
	c-0.651,0.229-0.995,0.659-0.98,1.433l0.322,2.606c0.107,0.931,0.73,1.274,1.274,1.274l0.329-0.043
	c1.497-0.4,4.376-0.744,6.159-0.744c3.688,0,4.54,0.587,4.54,3.107c0,2.393-0.258,3.323-5.621,7.062
	c-6.518,4.612-8.608,7.806-8.608,13.12v3.236c0,0.631,0.415,1.375,1.59,1.375H63.38c0.781,0,1.375-0.602,1.375-1.375v-2.836
	c0-0.759-0.602-1.36-1.375-1.36H50.446c0.129-2.808,1.361-4.87,7.004-8.723C62.507,93.694,64.927,91.789,64.927,86.447
	 M56.004,136.949c4.397-3.609,7.333-6.273,9.21-8.364c0.501-0.616,0.845-1.017,0.845-1.661v-3.037c0-0.63-0.437-1.26-1.403-1.26
	H46.179c-0.803,0-1.404,0.615-1.404,1.403v2.851c0,0.802,0.573,1.389,1.354,1.389h11.516c-1.668,1.662-5.335,4.898-9.424,8.265
	c-0.494,0.444-0.853,0.759-0.853,1.519v2.549c0,0.803,0.602,1.404,1.411,1.404h2.355c7.47,0,8.838,1.633,8.838,4.855
	c0,4.841-1.848,5.657-7.377,5.657c-1.518,0-4.182-0.215-6.316-0.645c-0.802,0-1.403,0.602-1.396,1.304l-0.351,2.85
	c0,0.803,0.681,1.447,1.196,1.39c2.686,0.63,5.479,0.845,7.211,0.845c6.389,0,13.7-1.289,13.7-11.4
	C66.639,144.025,65.571,137.58,56.004,136.949 M81.843,58.475h21.062V43.406H81.843V58.475z M111.118,25.589l0.881,0.874V66.51
	h40.792l1.597,1.561l0.015,90.994c-0.129,2.277-0.838,3.953-2.313,5.385c-1.382,1.361-2.936,1.948-5.185,1.948H41.079
	c-2.85,0-4.268-1.046-5.185-1.948c-1.468-1.446-2.177-3.107-2.292-4.869L33.589,32.894c0.129-2.263,0.838-3.925,2.306-5.371
	c0.917-0.902,2.327-1.934,5.185-1.934H111.118z M171.991,159.58V60.694L118.309,8H41.079c-6.824,0-12.891,2.406-17.523,6.976
	C18.993,19.459,16.387,25.303,16,32.406l0.015,127.66c0.372,6.589,2.979,12.447,7.533,16.93C28.203,181.58,34.262,184,41.079,184
	h105.825c6.817,0,12.876-2.42,17.524-6.989C169.048,172.471,171.59,166.77,171.991,159.58"/>
</svg>
