<?xml version="1.0" encoding="utf-8"?>
<!-- Generator: Adobe Illustrator 16.0.4, SVG Export Plug-In . SVG Version: 6.00 Build 0)  -->
<!DOCTYPE svg PUBLIC "-//W3C//DTD SVG 1.1//EN" "http://www.w3.org/Graphics/SVG/1.1/DTD/svg11.dtd">
<svg version="1.1" id="Ebene_1" xmlns="http://www.w3.org/2000/svg" xmlns:xlink="http://www.w3.org/1999/xlink" x="0px" y="0px"
	 width="192px" height="192px" viewBox="0 0 192 192" enable-background="new 0 0 192 192" xml:space="preserve">
<g>
	<defs>
		<rect id="SVGID_1_" x="8" y="8" width="176" height="174.147"/>
	</defs>
	<clipPath id="SVGID_2_">
		<use xlink:href="#SVGID_1_"  overflow="visible"/>
	</clipPath>
	<path clip-path="url(#SVGID_2_)" fill="#006AB2" d="M94.154,98.795h25.976c1.435-3.649,2.248-7.604,2.248-11.758
		c0-1.246-0.09-2.469-0.226-3.68H94.154V98.795z M81.707,83.645h-23.63c-0.117,1.115-0.181,2.248-0.181,3.392
		c0,4.262,0.847,8.319,2.355,12.048h21.457V83.645z M81.707,106.814H64.728c4.236,5.429,10.155,9.456,16.979,11.309V106.814z
		 M81.707,59.897h-8.903c-5.705,3.656-10.174,9.05-12.677,15.438h21.58V59.897z M107.472,59.897H94.154v15.438h25.993
		C117.648,68.947,113.18,63.553,107.472,59.897 M115.547,106.814H94.154v12.188C102.824,117.92,110.42,113.39,115.547,106.814
		 M83.256,134.303H32.4v6.175h50.856V134.303z M53.384,111.218H32.4v6.175h24.702v4.86h8.09
		C60.57,119.373,56.556,115.627,53.384,111.218 M45.593,87.988H32.4v6.175h13.802C45.85,92.151,45.642,90.092,45.593,87.988
		 M52.092,64.758H32.4v6.175h16.398C49.712,68.768,50.837,66.719,52.092,64.758 M17.263,17.263h128.134V8H8v109.609h9.263V17.263z
		 M110.698,49.444h55.136V32.701H32.4v16.743H69.58c5.319-2.483,14.313-6.996,20.557-6.996
		C96.385,42.448,105.379,46.96,110.698,49.444 M131.476,70.934h34.358v-6.175h-34.631v5.606
		C131.288,70.556,131.394,70.739,131.476,70.934 M134.291,94.164h31.543v-6.175h-31.543V94.164z M125.028,117.393h40.806v-6.175
		h-37.718v-1.789c-3.338,5.184-7.794,9.562-13.032,12.824h9.944V117.393z M165.837,134.303H98.501v6.175h67.336V134.303z"/>
	<path clip-path="url(#SVGID_2_)" fill="#F69F24" d="M131.641,87.037c0,22.884-18.621,41.506-41.501,41.506
		c-22.888,0-41.507-18.622-41.507-41.506S67.251,45.535,90.14,45.535C113.02,45.535,131.641,64.153,131.641,87.037 M142.314,107.661
		c2.302-6.23,3.465-12.935,3.465-19.956c-0.271-15.901-5.749-29.375-16.282-40.049c-10.544-10.677-23.955-16.225-39.909-16.5
		c-15.935,0.274-29.417,5.819-40.09,16.49C38.82,58.321,33.272,71.791,33.009,87.735c0.263,15.937,5.817,29.362,16.501,39.909
		c10.677,10.543,24.143,16.019,40.051,16.284c7.025,0,13.736-1.167,19.951-3.469c5.053-1.863,9.732-4.438,13.927-7.672v5.483
		l43.881,43.877L184,165.46l-43.878-43.87h-5.478C137.871,117.387,140.449,112.714,142.314,107.661"/>
</g>
</svg>
