<?xml version="1.0" encoding="utf-8"?>
<!-- Generator: Adobe Illustrator 16.0.4, SVG Export Plug-In . SVG Version: 6.00 Build 0)  -->
<!DOCTYPE svg PUBLIC "-//W3C//DTD SVG 1.1//EN" "http://www.w3.org/Graphics/SVG/1.1/DTD/svg11.dtd">
<svg version="1.1" id="Ebene_1" xmlns="http://www.w3.org/2000/svg" xmlns:xlink="http://www.w3.org/1999/xlink" x="0px" y="0px"
	 width="192px" height="192px" viewBox="0 0 192 192" enable-background="new 0 0 192 192" xml:space="preserve">
<path d="M174.719,125.678h-11v29.053h11V125.678z M90.042,142.264l-8.852,29.971v0.133l37.39,11.426l39.123-12.65
	l-8.801-29.742l-30.322,14.576L90.042,142.264z M53.375,110.768l11.888,5.66l53.317,25.639l37.92-18.23l-42.072-10.727l3.051-11.936
	l55.688,14.205l-0.137,0.516l10.756-5.127L118.58,79.46L53.375,110.768z M45.77,69.137h36.323V51.535H45.77V69.137z M143.854,76.102
	h17.596V60.748L108.713,8H32.786c-6.746,0-12.755,2.424-17.389,7.047C10.864,19.591,8.38,25.27,8,32.41l0.015,127.653
	c0.365,6.664,2.864,12.35,7.391,16.895c4.611,4.607,10.62,7.043,17.381,7.043h28.022v-17.604H32.786
	c-2.142,0-3.603-0.561-4.928-1.875c-1.439-1.455-2.141-3.123-2.256-4.941L25.589,32.893c0.129-2.302,0.83-3.975,2.256-5.403
	c1.324-1.328,2.807-1.891,4.941-1.891h68.636l1.469,1.465v40.061h40.053l0.91,0.91V76.102z"/>
</svg>
