<?xml version="1.0" encoding="utf-8"?>
<!-- Generator: Adobe Illustrator 16.0.4, SVG Export Plug-In . SVG Version: 6.00 Build 0)  -->
<!DOCTYPE svg PUBLIC "-//W3C//DTD SVG 1.1//EN" "http://www.w3.org/Graphics/SVG/1.1/DTD/svg11.dtd">
<svg version="1.1" id="Ebene_1" xmlns="http://www.w3.org/2000/svg" xmlns:xlink="http://www.w3.org/1999/xlink" x="0px" y="0px" width="192px" height="192px" viewBox="0 0 192 192" enable-background="new 0 0 192 192" xml:space="preserve">
	<path
		d="M132.468,140.673h-14.667v14.667h14.667V140.673z M132.468,111.34h-14.667v14.666h14.667V111.34z
	 M132.468,82.006h-14.667v14.667h14.667V82.006z M103.135,140.673H51.801v14.667h51.334V140.673z M103.135,111.34H51.801v14.666
	h51.334V111.34z M103.135,82.006H51.801v14.667h51.334V82.006z M153,166.397H38.603V46.131h20.532v20.535h73.333V46.131H153V166.397
	z M170.603,28.532h-52.944C116.885,17.077,107.453,8,95.801,8c-11.651,0-21.083,9.077-21.85,20.532H21V184h149.603V28.532z"/>
</svg>
