<?xml version="1.0" encoding="utf-8"?>
<!-- Generator: Adobe Illustrator 16.0.4, SVG Export Plug-In . SVG Version: 6.00 Build 0)  -->
<!DOCTYPE svg PUBLIC "-//W3C//DTD SVG 1.1//EN" "http://www.w3.org/Graphics/SVG/1.1/DTD/svg11.dtd">
<svg version="1.1" id="Ebene_1" xmlns="http://www.w3.org/2000/svg" xmlns:xlink="http://www.w3.org/1999/xlink" x="0px" y="0px"
	 width="192px" height="192px" viewBox="0 0 192 192" enable-background="new 0 0 192 192" xml:space="preserve">
<path d="M52,40c-15.602,0-32.398,3.203-44,12v117.281c0,2,2,4,4,4c0.797,0,1.203-0.562,2-0.562C24.797,167.516,40.398,164,52,164
	c15.602,0,32.398,3.203,44,12c10.797-6.797,30.398-12,44-12c13.203,0,26.797,2.484,38,8.484c0.797,0.391,1.203,0.234,2,0.234
	c2,0,4-2,4-4V52c-4.797-3.609-10-6-16-8v16v44v48c-8.797-2.797-18.398-4-28-4c-13.602,0-33.203,5.203-44,12v-56V68V52
	C84.398,43.203,67.602,40,52,40 M152,16l-40,36v88l40-36V16z"/>
</svg>
