<?xml version="1.0" encoding="utf-8"?>
<!-- Generator: Adobe Illustrator 22.1.0, SVG Export Plug-In . SVG Version: 6.00 Build 0)  -->
<svg version="1.1" id="Ebene_1" xmlns="http://www.w3.org/2000/svg" xmlns:xlink="http://www.w3.org/1999/xlink" x="0px" y="0px"
	 viewBox="0 0 24 24" style="enable-background:new 0 0 24 24;" xml:space="preserve">
<path d="M19,3h-4.2c-0.4-1.2-1.5-2-2.8-2S9.6,1.8,9.2,3H5C3.9,3,3,3.9,3,5v14c0,1.1,0.9,2,2,2h14c1.1,0,2-0.9,2-2V5
	C21,3.9,20.1,3,19,3 M12,3c0.6,0,1,0.4,1,1s-0.4,1-1,1s-1-0.4-1-1S11.4,3,12,3 M7,7h10V5h2v14H5V5h2V7"/>
<polygon points="5.3,13.5 6.8,12 8.8,14 9,13.8 10.5,15.3 8.8,17 "/>
<polygon points="9,13.5 10.5,12 12.5,14 17,9.5 18.5,11 12.5,17 "/>
<polygon points="10.8,12 13.3,9.5 14.8,11 12.3,13.5 "/>
</svg>
