<svg id="Ebene_4" data-name="Ebene 4" xmlns="http://www.w3.org/2000/svg" viewBox="0 0 192 192"><title>icon_mdm-01</title><path d="M110.44,181.36V159.23H81.63v22.13m6,6.7H79.05a4,4,0,0,1-3.3-1.89,8.49,8.49,0,0,1-.86-4.61V158.91c0-1.81.07-3.32.86-4.53a4,4,0,0,1,3.3-1.82H113a4.07,4.07,0,0,1,3.33,1.82c.79,1.21.83,2.72.83,4.53v22.65a8.49,8.49,0,0,1-.86,4.61,4,4,0,0,1-3.3,1.89H100.06"/><polygon points="99.42 135.72 99.42 103.43 92.75 103.43 92.75 135.72 81.83 135.72 96 152.31 110.17 135.72 99.42 135.72"/><path d="M166.56,181.36V159.23H137.75v22.13m5.95,6.7h-8.52a4,4,0,0,1-3.31-1.89,8.49,8.49,0,0,1-.85-4.61V158.91c0-1.81.06-3.32.85-4.53a4,4,0,0,1,3.31-1.82h33.89a4.09,4.09,0,0,1,3.34,1.82c.79,1.21.82,2.72.82,4.53v22.65c0,1.81-.06,3.35-.86,4.61a4,4,0,0,1-3.3,1.89H156.19"/><polygon points="155.54 135.72 155.54 97.14 148.88 97.14 148.88 135.72 137.96 135.72 152.13 152.31 166.29 135.72 155.54 135.72"/><path d="M54.25,181.36V159.23H25.44v22.13m5.95,6.7H22.86a4,4,0,0,1-3.3-1.89,8.49,8.49,0,0,1-.86-4.61V158.91c0-1.81.07-3.32.86-4.53a4,4,0,0,1,3.3-1.82h33.9a4.06,4.06,0,0,1,3.33,1.82c.8,1.21.83,2.72.83,4.53v22.65a8.49,8.49,0,0,1-.86,4.61,4,4,0,0,1-3.3,1.89H43.88"/><polygon points="43.23 135.72 43.23 97.89 36.56 97.89 36.56 135.72 25.65 135.72 39.81 152.31 53.98 135.72 43.23 135.72"/><path d="M96,7.14C47.54,7.14,8.25,30.7,8.25,59.76S47.54,112.39,96,112.39s87.75-23.56,87.75-52.63S144.46,7.14,96,7.14ZM96,96.6c-33.92,0-66.42-16.49-66.42-36.84S62.08,22.93,96,22.93s66.42,16.49,66.42,36.83S132.59,96.6,96,96.6Z"/></svg>