<svg id="Ebene_4" data-name="Ebene 4" xmlns="http://www.w3.org/2000/svg" viewBox="0 0 235.5 192"><title>icon_mdm_v2</title><path d="M193,176.34V164.42H168.58v11.92m2.8,11.76h-9.73a4.5,4.5,0,0,1-3.73-1.9,8.18,8.18,0,0,1-1-4.6V159c0-1.8.11-3.3,1-4.5a4.68,4.68,0,0,1,3.73-1.8h38.46a4.68,4.68,0,0,1,3.73,1.8c.91,1.2.91,2.7.91,4.5v22.6a6.66,6.66,0,0,1-1,4.6,4.76,4.76,0,0,1-3.73,1.9H185.41"/><polygon points="187.21 135.7 187.21 94.6 174.42 103.4 174.42 135.7 166.65 135.7 180.85 152.3 195.05 135.7 187.21 135.7"/><path d="M130.34,176.34V164.42H105.92v11.92m2.79,11.76H99a4.5,4.5,0,0,1-3.73-1.9,8.18,8.18,0,0,1-1-4.6V159c0-1.8.12-3.3,1-4.5A4.68,4.68,0,0,1,99,152.7h38.46a4.7,4.7,0,0,1,3.74,1.8c.9,1.2.9,2.7.9,4.5v22.6a6.61,6.61,0,0,1-1,4.6,4.76,4.76,0,0,1-3.73,1.9H122.74"/><polygon points="124.54 135.7 124.54 110.39 111.75 110.39 111.75 135.7 103.98 135.7 118.18 152.3 132.38 135.7 124.54 135.7"/><path d="M67.68,176.34V164.42H43.25v11.92m2.8,11.76H36.32a4.52,4.52,0,0,1-3.74-1.9,8.1,8.1,0,0,1-1-4.6V159c0-1.8.11-3.3,1-4.5a4.7,4.7,0,0,1,3.74-1.8H74.78a4.68,4.68,0,0,1,3.73,1.8c.9,1.2.9,2.7.9,4.5v22.6a6.66,6.66,0,0,1-1,4.6,4.83,4.83,0,0,1-3.74,1.9H60.07"/><polygon points="41.31 135.7 55.51 152.3 69.71 135.7 61.94 135.7 61.94 103.4 49.16 94.6 49.16 135.7 41.31 135.7"/><path d="M118.32,7.1C57.68,7.1,8.67,30.7,8.67,59.8s49.14,52.6,109.77,52.6S228.21,88.8,228.21,59.8,179,7.1,118.32,7.1Zm0,92.5c-54.69,0-97-19.5-97-39.8s42.33-39.9,97-39.9c54.87,0,97,19.5,97,39.8S173.19,99.6,118.32,99.6Z"/></svg>