<svg id="Ebene_4" data-name="Ebene 4" xmlns="http://www.w3.org/2000/svg" viewBox="0 0 192 192"><title>icon_mdm_01</title><path d="M101.33,172.21v-3.78H90.67v3.78m-3,15.85H79.05a4,4,0,0,1-3.3-1.89,8.54,8.54,0,0,1-.86-4.61V158.91c0-1.81.07-3.32.86-4.53a4,4,0,0,1,3.3-1.82h34a4.07,4.07,0,0,1,3.33,1.82c.79,1.21.83,2.72.83,4.53v22.65a8.54,8.54,0,0,1-.86,4.61,4,4,0,0,1-3.3,1.89H135.72.06"/><polygon points="103.92 135.72 103.92 103.43 88.06 103.43 88.06 135.72 81.83 135.72 96 152.31 110.17 135.72 103.92 135.72"/><path d="M157.33,172.21v-3.78H146.67v3.78m-3,15.85h-8.58a4,4,0,0,1-3.3-1.89,8.54,8.54,0,0,1-.86-4.61V158.91c0-1.81.07-3.32.86-4.53a4,4,0,0,1,3.3-1.82H169a4.07,4.07,0,0,1,3.33,1.82c.79,1.21.83,2.72.83,4.53v22.65a8.54,8.54,0,0,1-.86,4.61,4,4,0,0,1-3.3,1.89H156.06"/><polygon points="159.92 135.72 159.92 94.64 144.06 103.43 144.06 135.72 137.83 135.72 152 152.31 166.17 135.72 159.92 135.72"/><path d="M45.58,172.21v-3.78H34.92v3.78m-3,15.85H23.3a4,4,0,0,1-3.3-1.89,8.54,8.54,0,0,1-.86-4.61V158.91c0-1.81.07-3.32.86-4.53a4,4,0,0,1,3.3-1.82h34a4.07,4.07,0,0,1,3.33,1.82c.79,1.21.83,2.72.83,4.53v22.65a8.54,8.54,0,0,1-.86,4.61,4,4,0,0,1-3.3,1.89H44.31"/><polygon points="48.17 135.72 48.17 103.43 32.31 95.52 32.31 135.72 26.08 135.72 40.25 152.31 54.42 135.72 48.17 135.72"/><path d="M96,7.14C47.54,7.14,8.25,30.7,8.25,59.76S47.54,112.39,96,112.39s87.75-23.56,87.75-52.63S144.46,7.14,96,7.14ZM96,96.6c-33.92,0-66.42-16.49-66.42-36.84S62.08,22.93,96,22.93s66.42,16.49,66.42,36.83S132.59,96.6,96,96.6Z"/></svg>
