<?xml version="1.0" encoding="utf-8"?>
<!-- Generator: Adobe Illustrator 16.0.4, SVG Export Plug-In . SVG Version: 6.00 Build 0)  -->
<!DOCTYPE svg PUBLIC "-//W3C//DTD SVG 1.1//EN" "http://www.w3.org/Graphics/SVG/1.1/DTD/svg11.dtd">
<svg version="1.1" id="Ebene_1" xmlns="http://www.w3.org/2000/svg" xmlns:xlink="http://www.w3.org/1999/xlink" x="0px" y="0px"
	 width="192px" height="192px" viewBox="0 0 192 192" enable-background="new 0 0 192 192" xml:space="preserve">
<path d="M140.101,88l-24.887-24.893v10.899L129.208,88l-13.994,13.808v11.071L140.101,88z M99.452,53.124
	l-14.538,68.12l7.634,1.633l14.531-68.12L99.452,53.124z M76.306,63.107L51.413,88l24.893,24.879v-11.071L62.319,88l13.986-13.993
	V63.107z M154.781,128.334H37.219V47.781h117.562V128.334z M184,143.115h-29.219c4.125,0,7.562-1.433,10.312-4.297
	c2.75-2.865,4.125-6.359,4.125-10.484V47.781c0-4.125-1.375-7.562-4.125-10.312s-6.188-4.239-10.312-4.469H37.219
	c-4.125,0.229-7.562,1.719-10.312,4.469s-4.125,6.188-4.125,10.312v80.553c0,4.125,1.375,7.619,4.125,10.484
	c2.75,2.864,6.188,4.297,10.312,4.297H8v14.781h176V143.115z"/>
</svg>
