<?xml version="1.0" encoding="utf-8"?>
<!-- Generator: Adobe Illustrator 16.0.4, SVG Export Plug-In . SVG Version: 6.00 Build 0)  -->
<!DOCTYPE svg PUBLIC "-//W3C//DTD SVG 1.1//EN" "http://www.w3.org/Graphics/SVG/1.1/DTD/svg11.dtd">
<svg version="1.1" id="Ebene_1" xmlns="http://www.w3.org/2000/svg" xmlns:xlink="http://www.w3.org/1999/xlink" x="0px" y="0px"
	 width="192px" height="192px" viewBox="0 0 192 192" enable-background="new 0 0 192 192" xml:space="preserve">
<path d="M8,168.66h29.332v-14.666H8V168.66z M51.998,168.66H81.33v-14.666H51.998V168.66z M95.996,168.66H184
	v-14.666H95.996V168.66z M8,132.01h29.332v-14.681H8V132.01z M51.998,132.01H81.33v-14.681H51.998V132.01z M95.996,132.01H184
	v-14.681H95.996V132.01z M8,95.33h29.332V80.664H8V95.33z M51.998,95.33H81.33V80.664H51.998V95.33z M95.996,95.33H184V80.664
	H95.996V95.33z M8,51.332h175.993V22H8V51.332z"/>
</svg>
