<?xml version="1.0" encoding="utf-8"?>
<!-- Generator: Adobe Illustrator 16.0.4, SVG Export Plug-In . SVG Version: 6.00 Build 0)  -->
<!DOCTYPE svg PUBLIC "-//W3C//DTD SVG 1.1//EN" "http://www.w3.org/Graphics/SVG/1.1/DTD/svg11.dtd">
<svg version="1.1" id="Ebene_1" xmlns="http://www.w3.org/2000/svg" xmlns:xlink="http://www.w3.org/1999/xlink" x="0px" y="0px"
	 width="192px" height="192px" viewBox="0 0 192 192" enable-background="new 0 0 192 192" xml:space="preserve">
<g>
	<defs>
		<rect id="SVGID_1_" x="8" y="8" width="176" height="174.15"/>
	</defs>
	<clipPath id="SVGID_2_">
		<use xlink:href="#SVGID_1_"  overflow="visible"/>
	</clipPath>
	<path clip-path="url(#SVGID_2_)" d="M17.263,17.263h128.134V8H8v109.607h9.263V17.263z M60.127,75.335h21.579
		V59.898h-8.9C67.098,63.553,62.629,68.948,60.127,75.335 M60.25,99.082h21.456V83.644h-23.63c-0.117,1.115-0.181,2.249-0.181,3.395
		C57.896,91.299,58.746,95.355,60.25,99.082 M81.706,118.125v-11.307H64.728C68.964,112.24,74.883,116.271,81.706,118.125
		 M115.546,106.818H94.153v12.184C102.822,117.92,110.42,113.385,115.546,106.818 M94.153,75.335h25.994
		c-2.503-6.388-6.972-11.782-12.676-15.438H94.153V75.335z M120.129,98.795c1.436-3.651,2.25-7.604,2.25-11.756
		c0-1.245-0.091-2.473-0.229-3.682H94.153v15.438H120.129z M131.641,87.039c0,8.25-2.448,15.926-6.611,22.391
		c-3.338,5.184-7.795,9.561-13.032,12.826c-6.356,3.959-13.831,6.291-21.857,6.291s-15.504-2.332-21.86-6.291
		c-2.158-1.348-4.179-2.883-6.045-4.582c-0.006-0.006-0.016-0.02-0.027-0.025c-1.863-1.699-3.57-3.568-5.104-5.586
		c-5.289-6.969-8.47-15.62-8.47-25.024c0-9.402,3.181-18.057,8.473-25.025c0.549-0.72,1.109-1.427,1.7-2.112
		c3.803-4.378,8.494-7.962,13.798-10.454h0.063c5.318-2.483,11.226-3.912,17.473-3.912c6.245,0,12.151,1.429,17.471,3.912h0.063
		c5.3,2.492,9.995,6.072,13.791,10.454c1.297,1.495,2.487,3.075,3.564,4.745C129.192,71.116,131.641,78.791,131.641,87.039
		 M121.13,134.303c0.76-0.521,1.583-0.951,2.312-1.512v1.512H121.13z M159.013,140.477h6.824v-6.174h-12.999l-11.808-11.805
		l-0.904-0.91h-5.481c1.016-1.328,1.854-2.781,2.743-4.197h28.445v-6.176h-25.141c0.54-1.182,1.17-2.322,1.622-3.555
		c1.58-4.285,2.588-8.814,3.085-13.497h20.434v-6.175h-20.065c0-0.094,0.012-0.19,0.012-0.283
		c-0.103-5.938-0.932-11.533-2.476-16.77h22.529v-6.175h-24.797c-2.396-5.586-5.729-10.689-9.932-15.314h34.729V32.701h-63.346
		c-4.101-0.921-8.389-1.467-12.899-1.544c-4.511,0.077-8.798,0.623-12.908,1.544H32.402v16.746h15.452
		c-4.251,4.625-7.628,9.726-10.053,15.314h-5.399v6.175h3.108c-1.562,5.243-2.4,10.848-2.503,16.796
		c0,0.091,0.019,0.169,0.019,0.257h-0.624v6.175h1.034c0.705,6.106,2.261,11.793,4.634,17.051h-5.668v6.176h8.97
		c2.268,3.656,4.948,7.098,8.142,10.25c2.548,2.516,5.264,4.723,8.125,6.662H32.402v6.174h37.572
		c6.042,2.139,12.561,3.332,19.586,3.449c7.005,0,13.698-1.16,19.895-3.449h16.195l41.667,41.674L184,165.461L159.013,140.477z"/>
</g>
</svg>
