<?xml version="1.0" encoding="utf-8"?>
<!-- Generator: Adobe Illustrator 16.0.4, SVG Export Plug-In . SVG Version: 6.00 Build 0)  -->
<!DOCTYPE svg PUBLIC "-//W3C//DTD SVG 1.1//EN" "http://www.w3.org/Graphics/SVG/1.1/DTD/svg11.dtd">
<svg version="1.1" id="Ebene_1" xmlns="http://www.w3.org/2000/svg" xmlns:xlink="http://www.w3.org/1999/xlink" x="0px" y="0px"
	 width="192px" height="192px" viewBox="0 0 192 192" enable-background="new 0 0 192 192" xml:space="preserve">
<path d="M104.671,113.775H87.318V96.001h17.353V113.775z M117.274,44.154c4.812,3.724,7.232,8.607,7.232,14.666
	c0,3.854-1.311,7.376-3.932,10.527c-2.614,3.18-5.986,5.729-10.118,7.648c-2.206,1.39-3.717,2.836-4.548,4.34
	c-0.816,1.519-1.238,3.51-1.238,5.987H87.318c0-4.397,0.831-7.633,2.478-9.71c1.654-2.062,4.827-4.469,9.511-7.219
	c2.198-1.375,3.989-3.036,5.364-4.97c1.382-1.92,2.069-4.125,2.069-6.603c0-2.478-0.831-4.469-2.478-5.986
	c-1.654-1.519-3.717-2.277-6.195-2.277c-2.484,0-4.547,0.615-6.194,1.861c-1.661,1.232-2.485,3.094-2.485,5.572H72.037
	c-0.559-6.331,1.654-11.144,6.609-14.452c4.956-3.315,11.293-4.962,19.006-4.962C105.909,38.575,112.455,40.438,117.274,44.154
	 M25.344,131.12h52.894v27.271l27.263-27.271h61.143V25.352H25.344V131.12z M166.644,8c4.956,0,9.088,1.651,12.396,4.959
	c3.302,3.309,4.956,7.437,4.956,12.392V131.12c0,4.955-1.654,9.152-4.956,12.604c-3.309,3.438-7.44,5.156-12.396,5.156h-53.709
	L80.3,181.521c-1.934,1.646-3.996,2.479-6.201,2.479h-4.541c-2.478,0-4.54-0.832-6.201-2.479c-1.647-1.646-2.478-3.725-2.478-6.201
	v-26.44H25.344c-4.955,0-9.08-1.719-12.388-5.156C9.654,140.272,8,136.075,8,131.12V25.352c0-4.955,1.654-9.083,4.956-12.392
	C16.265,9.651,20.389,8,25.344,8H166.644z"/>
</svg>
