<?xml version="1.0" encoding="utf-8"?>
<!-- Generator: Adobe Illustrator 16.0.3, SVG Export Plug-In . SVG Version: 6.00 Build 0)  -->
<!DOCTYPE svg PUBLIC "-//W3C//DTD SVG 1.1//EN" "http://www.w3.org/Graphics/SVG/1.1/DTD/svg11.dtd">
<svg version="1.1" id="Ebene_1" xmlns="http://www.w3.org/2000/svg" xmlns:xlink="http://www.w3.org/1999/xlink" x="0px" y="0px"
	 width="345.833px" height="82.5px" viewBox="0 0 345.833 82.5" enable-background="new 0 0 345.833 82.5" xml:space="preserve">
<polygon fill="#0069B4" points="193.142,75.874 228.997,75.874 228.997,70.486 201.523,70.486 201.523,70.266 228.632,30.048 
	228.632,26.137 195.474,26.137 195.474,31.524 220.397,31.524 220.397,31.745 193.142,72.109 "/>
<g>
	<defs>
		<rect id="SVGID_1_" x="2" y="3" width="341.175" height="74.466"/>
	</defs>
	<clipPath id="SVGID_2_">
		<use xlink:href="#SVGID_1_"  overflow="visible"/>
	</clipPath>
	<path clip-path="url(#SVGID_2_)" fill="#0069B4" d="M155.021,32.083c1.666-0.367,4.13-0.661,7.39-0.661
		c13.331,0,19.851,7.41,19.779,19.075c0,13.353-7.317,20.981-20.793,20.981c-2.464,0-4.782-0.074-6.376-0.367V32.083z
		 M148.718,76.027c3.188,0.367,6.955,0.586,11.447,0.586c9.491,0,17.026-2.493,21.59-7.115c4.564-4.549,7.027-11.152,7.027-19.221
		c0-7.998-2.535-13.719-6.883-17.754c-4.275-4.035-10.723-6.163-19.779-6.163c-4.999,0-9.563,0.44-13.403,1.027V76.027z"/>
	<path clip-path="url(#SVGID_2_)" fill="#0069B4" d="M299.72,46.944"/>
	<path clip-path="url(#SVGID_2_)" fill="#0069B4" d="M323.558,46.944"/>
</g>
<polygon fill="#0069B4" points="285.449,46.906 286.779,52.136 272.879,52.136 272.879,46.906 "/>
<g>
	<defs>
		<rect id="SVGID_3_" x="2" y="3" width="341.175" height="74.466"/>
	</defs>
	<clipPath id="SVGID_4_">
		<use xlink:href="#SVGID_3_"  overflow="visible"/>
	</clipPath>
	<path clip-path="url(#SVGID_4_)" fill="#0069B4" d="M242.654,52.49"/>
	<path clip-path="url(#SVGID_4_)" fill="#0069B4" d="M266.494,52.49"/>
</g>
<polygon fill="#0069B4" points="280.238,26.133 285.449,46.889 291.783,46.889 286.962,26.133 "/>
<polyline fill="#0069B4" points="242.74,47.53 242.71,26.136 236.369,26.136 236.369,75.875 242.71,75.875 242.71,47.381 "/>
<polygon fill="#0069B4" points="236.37,26.137 236.37,75.874 242.709,75.874 242.709,52.109 266.468,52.109 266.468,75.874 
	272.88,75.874 272.88,26.137 266.468,26.137 266.468,46.951 242.741,46.949 242.709,26.137 "/>
<g>
	<defs>
		<rect id="SVGID_5_" x="2" y="3" width="341.175" height="74.466"/>
	</defs>
	<clipPath id="SVGID_6_">
		<use xlink:href="#SVGID_5_"  overflow="visible"/>
	</clipPath>
	<path clip-path="url(#SVGID_6_)" fill="#0069B4" d="M340.232,26.133l-13.904,49.738h-3.145v-7.484h0.137
		c0,0,2.48-12.365,5.051-21.615c2.416-8.692,5.395-20.638,5.395-20.638H340.232z"/>
	<path clip-path="url(#SVGID_6_)" fill="#0069B4" d="M286.78,52.118l5.922,23.754h3.879v-7.368h-0.161c0,0-1.123-5.927-1.537-7.902
		c-0.271-1.299-1.906-8.483-1.906-8.483H286.78z"/>
	<path clip-path="url(#SVGID_6_)" fill="#0069B4" d="M310.283,26.133h-3.145c0,0-6.027,23.304-6.633,25.45
		c-2.594,9.204-3.925,16.921-3.925,16.921h-0.161v7.367h2.915c0,0,6.245-22.84,7.804-28.773c2.205-8.391,3.008-13.364,3.008-13.364
		h0.137V26.133z"/>
	<path clip-path="url(#SVGID_6_)" fill="#0069B4" d="M310.146,26.133h3.627c0,0,5.549,23.28,6.059,25.45
		c0.404,1.722,2.086,9.208,2.342,10.716c0.256,1.506,1.01,6.088,1.01,6.088h0.137v7.484h-3.648c0,0-4.215-17.707-5.898-24.729
		c-0.375-1.563-1.742-7.394-2.111-9.32c-0.553-2.859-1.379-8.089-1.379-8.089h-0.137V26.133z"/>
</g>
<polyline fill="#0069B4" points="266.467,47.381 266.467,75.874 272.88,75.874 272.88,26.137 266.467,26.137 266.467,47.532 "/>
<polygon fill="#0069B4" points="335.468,70.557 336.828,75.893 343.175,75.893 341.933,70.557 "/>
<polygon points="134.023,69.316 135.782,76.223 143.996,76.223 142.39,69.316 "/>
<g>
	<defs>
		<rect id="SVGID_7_" x="2" y="3" width="341.175" height="74.466"/>
	</defs>
	<clipPath id="SVGID_8_">
		<use xlink:href="#SVGID_7_"  overflow="visible"/>
	</clipPath>
	<path clip-path="url(#SVGID_8_)" d="M88.18,76.348h39.974v-7.11H99.369v-0.203c2.237-2.545,4.272-4.988,6.306-7.735l21.97-28.599
		l0.102-5.586H90.214v7.211h26.65v0.204c-2.238,2.646-4.272,4.987-6.408,7.634L88.18,71.167V76.348z M69.968,55.691
		c0,1.426-0.102,2.646-0.407,3.867c-1.629,6.727-7.126,10.696-13.132,10.696c-9.67,0-14.556-8.243-14.556-18.219
		c0-10.892,5.497-19.033,14.76-19.033c6.718,0,11.604,4.682,12.928,10.382c0.305,1.119,0.407,2.646,0.407,3.766V55.691z
		 M69.968,4.119v29.393h-0.204c-2.239-3.962-7.329-7.517-14.862-7.517c-12.011,0-22.174,10.061-22.072,26.448
		c0,14.962,9.145,25.023,21.054,25.023c8.042,0,14.048-4.164,16.795-9.654h0.203l0.407,8.535h8.027
		c-0.305-3.358-0.407-8.344-0.407-12.719V4.119H69.968z M17.758,76.348v-42.43h11.904v-6.804H17.758v-2.647
		c0-7.535,1.933-14.256,9.564-14.256c2.544,0,4.375,0.509,5.698,1.12l1.221-6.909C32.511,3.711,29.764,3,26.61,3
		c-4.172,0-8.649,1.32-12.002,4.57c-4.165,3.965-5.689,10.278-5.689,17.202v2.342H2v6.804h6.919v42.43H17.758z"/>
</g>
<g>
</g>
<g>
</g>
<g>
</g>
<g>
</g>
<g>
</g>
<g>
</g>
</svg>
