<svg clip-rule="evenodd" fill-rule="evenodd" stroke-linejoin="round" stroke-miterlimit="2" viewBox="0 0 338 74" xmlns="http://www.w3.org/2000/svg" xmlns:xlink="http://www.w3.org/1999/xlink"><clipPath id="a"><path clip-rule="evenodd" d="m.66.74h340.16v127.56h-340.16z"/></clipPath><g fill-rule="nonzero"><path d="m189.23 72.15h35.5v-5.34h-27.2v-.22l26.84-39.81v-3.87h-32.83v5.33h24.67v.22l-26.98 39.96z" fill="#0069b4"/><path d="m152.15 29.53c2.407-.47 4.857-.688 7.31-.65 13.2 0 19.66 7.33 19.58 18.88 0 13.22-7.24 20.77-20.58 20.77-2.11.051-4.22-.069-6.31-.36zm-6.24 43.47c3.763.407 7.545.601 11.33.58 9.4 0 16.86-2.47 21.37-7.05s7-11 7-19-2.55-13.53-6.85-17.53-10.62-6.1-19.58-6.1c-4.442 0-8.878.334-13.27 1z" fill="#0069b4" transform="translate(-.66 -.74)"/><path d="m280.61 43.47 1.32 5.18h-13.76v-5.18z" fill="#0069b4"/><path d="m275.46 22.9 5.15 20.55h6.28l-4.78-20.55z" fill="#0069b4"/><path d="m238.33 44.09-.03-21.18h-6.27v49.23h6.27v-28.2" fill="#0069b4"/><path d="m232.03 22.91v49.24h6.27v-23.53h23.52v23.53h6.35v-49.24h-6.35v20.6h-23.49l-.03-20.6z" fill="#0069b4"/><path d="m335.51 23.64-13.77 49.24h-3.11v-7.41h.13s2.46-12.24 5-21.4c2.39-8.6 5.34-20.43 5.34-20.43z" fill="#0069b4" transform="translate(-.66 -.74)"/><path d="m282.59 49.37 5.86 23.51h3.84v-7.29h-.16s-1.11-5.87-1.52-7.82c-.27-1.29-1.89-8.4-1.89-8.4z" fill="#0069b4" transform="translate(-.66 -.74)"/><path d="m305.86 23.64h-3.12s-6 23.07-6.56 25.2c-2.57 9.11-3.89 16.75-3.89 16.75h-.16v7.29h2.87s6.18-22.61 7.72-28.48c2.19-8.31 3-13.23 3-13.23h.14z" fill="#0069b4" transform="translate(-.66 -.74)"/><path d="m305.72 23.64h3.59l6 25.2c.4 1.7 2.06 9.11 2.32 10.6l1 6h.13v7.41h-3.61s-4.15-17.5-5.84-24.45c-.37-1.55-1.72-7.32-2.09-9.23-.55-2.83-1.36-8-1.36-8h-.14z" fill="#0069b4" transform="translate(-.66 -.74)"/><path d="m261.82 43.94v28.21h6.35v-49.24h-6.35v21.18" fill="#0069b4"/><path d="m330.13 66.88 1.35 5.28h6.28l-1.22-5.28z" fill="#0069b4"/><path d="m130.7 65.65 1.74 6.84h8.14l-1.59-6.84z" fill="#1d1d1b"/></g><g clip-path="url(#a)" transform="translate(-.66 -.74)"><path d="m86 73.35h39.57v-7h-28.52v-.2c2.22-2.52 4.23-4.94 6.25-7.66l21.75-28.31.1-5.53h-37.15v7.14h26.38v.21c-2.21 2.62-4.23 4.94-6.34 7.56l-22.04 28.66zm-18-20.45c.023 1.289-.115 2.575-.41 3.83-1.284 6.134-6.733 10.572-13 10.59-9.57 0-14.41-8.16-14.41-18 0-10.78 5.44-18.84 14.61-18.84 6.141-.041 11.515 4.274 12.8 10.28.281 1.21.419 2.448.41 3.69zm0-51v29.1h-.21c-2.26-4-7.3-7.5-14.79-7.5-11.89 0-22 10-21.85 26.19 0 14.81 9 24.77 20.84 24.77 8 0 13.91-4.12 16.63-9.56h.2l.4 8.45h8c-.3-3.32-.4-8.26-.4-12.59v-58.91zm-51.74 71.45v-42h11.74v-6.74h-11.74v-2.61c0-7.46 1.91-14.11 9.47-14.11 1.939-.05 3.865.329 5.64 1.11l1.21-6.84c-2.414-.948-4.986-1.43-7.58-1.42-4.387-.081-8.64 1.54-11.86 4.52-4.14 3.93-5.63 10.18-5.63 17.03v2.32h-6.85v6.74h6.85v42z" fill="#1d1d1b" fill-rule="nonzero"/></g></svg>