<svg
    id="egg-thank-you"
    width="100%"
    height="100%"
    viewBox="0 0 366 377"
    version="1.1"
    xmlns="http://www.w3.org/2000/svg"
    xmlns:xlink="http://www.w3.org/1999/xlink"
    xml:space="preserve"
    style="fill-rule:evenodd;clip-rule:evenodd;stroke-linecap:round;stroke-linejoin:round;stroke-miterlimit:1.41421;">
    <g transform="matrix(1,0,0,1,-1399.76,-655.548)">
        <g transform="matrix(1,0,0,1,422.359,-7.24015)">
            <path
                class="egg-path-first"
                d="M1028.92,761.233C1028.54,762.063 1021.19,765.928 1016.71,768.526C1010.13,772.342 990.066,772.56 991.777,754.281C993.245,738.587 1013.75,732.578 1033.25,737.818C1052.75,743.06 1087.05,759.342 1131.09,746.782C1147.09,742.22 1156.22,731.967 1163.27,722.892C1184.19,695.959 1157.1,662.396 1126.23,701.94C1116.62,714.25 1108.29,729.037 1101.51,744.365C1078.38,796.593 1061.44,851.37 1061.44,851.37C1061.44,851.37 1076.98,806.697 1092.14,786.916C1093.59,785.023 1095.18,783.493 1096.82,782.32C1107,775.021 1119,781.54 1111.02,800.133C1106.95,809.635 1103.42,820.543 1101.6,827.239C1101.28,828.433 1101.06,829.697 1100.89,830.97C1099.46,841.439 1104.26,852.456 1117.46,838.632C1122.84,832.992 1125.06,827.319 1127.06,822.687C1133.88,806.954 1135.62,802.988 1135.62,802.988C1135.62,802.988 1157.08,761.785 1175.24,773.857C1175.24,773.857 1162.67,759.916 1137.95,798.394C1134.18,804.629 1129.28,822.24 1130,822.017C1130,822.017 1128.22,839.735 1139.41,840.729C1146.7,841.377 1150.12,839.584 1157.56,832.002C1160.71,828.795 1170.37,813.617 1174.38,806.64C1184.32,789.357 1187.79,779.806 1188.71,774.544C1189.71,768.81 1186.85,769.146 1182.71,772.352C1176.59,777.101 1166.36,790.671 1167.29,828.071C1167.77,847.688 1189.61,841.356 1194.69,827.142C1200.36,811.254 1209.86,769.822 1213.56,764.549L1199.48,811.325C1199.48,811.325 1211.99,774.508 1227.71,765.911C1243.57,757.234 1248.44,767.518 1244.19,778.874C1239.62,791.078 1233.55,808.937 1232.57,823.974C1231.73,836.97 1250.23,843.394 1257.94,824.375C1265.96,804.591 1301.49,698.42 1304.3,687.97C1310.49,664.893 1284.94,661.118 1276.44,685.431C1270.92,701.226 1274.48,713.861 1288.36,720.713C1296.82,724.889 1308.52,725.01 1319.01,722.67C1325.73,721.169 1331.96,718.657 1336.53,715.553"
                style="fill:none;stroke-width:7px;"/>
            <path
                class="egg-path-second"
                d="M1071.34,748.536C1071.34,748.536 1035.08,835.718 1033.44,839.308C1031.8,842.897 1017.78,864.03 997.486,863.646C977.191,863.262 984.779,836.405 985.174,835.177C985.697,833.552 990.04,819.632 1001.47,809.901C1012.89,800.169 1027.37,802.624 1025.33,814.591C1023.23,826.873 1017.83,834.633 1003.56,839.308"
                style="fill:none;stroke-width:7px;"/>
            <path class="egg-path-third" d="M1259.54,820.218C1259.54,820.218 1279.93,758.547 1314.68,752.795" style="fill:none;stroke-width:7px;"/>
            <path
                class="egg-path-fourth"
                d="M1259.54,820.218C1264.74,806.985 1282.67,768.7 1296.58,772.705C1309.68,776.48 1298.58,797.261 1297.84,801.254C1296.84,806.707 1296.46,812.457 1299.81,816.838C1303.35,821.474 1309.21,818.457 1313.27,813.864C1317.34,809.271 1328.04,792.621 1328.04,792.621"
                style="fill:none;stroke-width:7px;"/>
            <path
                class="egg-path-fifth"
                d="M1089.85,900.137C1089.81,898.985 1093.14,919.874 1077.42,919.347C1063.86,918.893 1067.18,894.271 1080.78,884.462C1093.2,875.504 1111.82,877.64 1108.16,891.792C1105.26,903.008 1095.11,930.021 1098.5,941.479C1101.54,951.748 1117.27,947.518 1122.36,939.016C1132.02,922.872 1148.65,875.827 1148.65,875.827C1148.65,875.827 1119.18,979.728 1114.2,988.265C1109.21,996.802 1099.77,1017.35 1088.5,1025.81C1077.37,1034.16 1064.19,1038.28 1056.16,1024.62C1048.14,1010.97 1065,987.804 1074.38,980.336C1084.19,972.524 1102.45,965.375 1136.46,966.361C1170.16,967.339 1158.48,970.177 1210.6,970.404C1261.29,970.624 1271.88,949.395 1271.88,949.395"
                style="fill:none;stroke-width:7px;"/>
            <path
                class="egg-path-sixth"
                d="M1188.12,867.469C1188.12,867.469 1181.78,869.943 1175.37,875.827C1168.86,881.803 1162.25,891.277 1157.99,902.554C1149.1,926.124 1154.61,937.293 1163.19,939.575C1173.13,942.22 1189.79,932.599 1199.3,902.333C1209.09,871.189 1183.91,870.136 1181.37,892.586C1180.11,904.561 1184.74,909.047 1192.34,909.745C1211.84,907.545 1224.21,886.816 1236.32,864.906C1229.01,880.254 1222.1,895.189 1218.48,910.981C1216.35,923.329 1219.01,928.968 1224.47,930.803C1234.38,933.278 1240.69,925.96 1246.39,917.291C1256.06,899.037 1263.96,879.674 1271.88,860.319C1260.47,879.518 1254.26,903.019 1252.37,913.951C1251.18,920.828 1252.81,925.769 1256.56,926.866C1259.05,927.594 1262.31,926.466 1266.45,923.257C1273.12,915.373 1277.72,908.343 1281.79,901.535"
                style="fill:none;stroke-width:7px;"/>
        </g>
    </g>
</svg>
