<?xml version="1.0" encoding="utf-8"?>
<!-- Generator: Adobe Illustrator 16.0.3, SVG Export Plug-In . SVG Version: 6.00 Build 0)  -->
<!DOCTYPE svg PUBLIC "-//W3C//DTD SVG 1.1//EN" "http://www.w3.org/Graphics/SVG/1.1/DTD/svg11.dtd">
<svg version="1.1" id="Ebene_1" xmlns="http://www.w3.org/2000/svg" xmlns:xlink="http://www.w3.org/1999/xlink" x="0px" y="0px"
	 width="552px" height="224px" viewBox="0 0 552 224" enable-background="new 0 0 552 224" xml:space="preserve">
<g>
	<g enable-background="new    ">
		<path d="M32.914,181.696c-1.04,0.373-3.094,0.986-5.521,0.986c-2.721,0-4.961-0.693-6.722-2.374
			c-1.547-1.493-2.507-3.894-2.507-6.694c0.027-5.361,3.708-9.282,9.736-9.282c2.08,0,3.708,0.453,4.481,0.827l-0.561,1.894
			c-0.96-0.427-2.16-0.773-3.974-0.773c-4.374,0-7.228,2.721-7.228,7.229c0,4.561,2.747,7.255,6.935,7.255
			c1.521,0,2.561-0.214,3.094-0.48v-5.361h-3.654v-1.867h5.921V181.696z"/>
		<path d="M37.817,176.468c0.053,3.175,2.081,4.481,4.428,4.481c1.68,0,2.694-0.294,3.574-0.667l0.4,1.681
			c-0.827,0.373-2.24,0.8-4.294,0.8c-3.975,0-6.348-2.614-6.348-6.508c0-3.895,2.293-6.962,6.055-6.962
			c4.214,0,5.334,3.708,5.334,6.082c0,0.479-0.054,0.854-0.08,1.093H37.817z M44.698,174.788c0.027-1.494-0.613-3.814-3.254-3.814
			c-2.374,0-3.414,2.188-3.601,3.814H44.698z"/>
		<path d="M49.87,173.614c0-1.521-0.027-2.827-0.107-4.027h2.054l0.08,2.533h0.107c0.586-1.733,2-2.827,3.574-2.827
			c0.267,0,0.454,0.027,0.667,0.08v2.214c-0.24-0.053-0.48-0.08-0.8-0.08c-1.654,0-2.827,1.254-3.147,3.015
			c-0.054,0.319-0.107,0.693-0.107,1.093v6.882h-2.32V173.614z"/>
		<path d="M58.696,173.081c0-1.334-0.027-2.428-0.107-3.494h2.054l0.107,2.08h0.08c0.72-1.227,1.92-2.374,4.054-2.374
			c1.76,0,3.094,1.067,3.654,2.588h0.053c0.4-0.721,0.907-1.28,1.44-1.681c0.773-0.587,1.627-0.907,2.854-0.907
			c1.707,0,4.241,1.12,4.241,5.602v7.602h-2.293v-7.309c0-2.48-0.907-3.974-2.801-3.974c-1.333,0-2.374,0.986-2.774,2.134
			c-0.106,0.32-0.187,0.747-0.187,1.174v7.975h-2.294v-7.735c0-2.054-0.907-3.547-2.694-3.547c-1.467,0-2.534,1.174-2.907,2.347
			c-0.133,0.347-0.187,0.747-0.187,1.147v7.788h-2.293V173.081z"/>
		<path d="M88.083,182.496l-0.187-1.627h-0.08c-0.72,1.014-2.107,1.92-3.948,1.92c-2.614,0-3.947-1.84-3.947-3.707
			c0-3.121,2.774-4.828,7.762-4.801v-0.267c0-1.067-0.293-2.987-2.934-2.987c-1.2,0-2.454,0.373-3.361,0.96l-0.533-1.547
			c1.067-0.693,2.614-1.147,4.241-1.147c3.948,0,4.908,2.694,4.908,5.281v4.828c0,1.12,0.053,2.214,0.213,3.094H88.083z
			 M87.736,175.908c-2.561-0.054-5.468,0.4-5.468,2.907c0,1.521,1.014,2.24,2.214,2.24c1.68,0,2.747-1.066,3.121-2.16
			c0.08-0.24,0.133-0.507,0.133-0.747V175.908z"/>
		<path d="M93.788,173.081c0-1.334-0.027-2.428-0.107-3.494h2.081l0.133,2.134h0.053c0.64-1.228,2.134-2.428,4.268-2.428
			c1.787,0,4.561,1.067,4.561,5.495v7.708h-2.347v-7.441c0-2.081-0.773-3.814-2.987-3.814c-1.547,0-2.747,1.094-3.147,2.4
			c-0.106,0.294-0.16,0.693-0.16,1.094v7.762h-2.347V173.081z"/>
	</g>
	<g enable-background="new    ">
		<path d="M126.877,181.909c-0.854,0.427-2.561,0.854-4.748,0.854c-5.068,0-8.882-3.2-8.882-9.095c0-5.628,3.814-9.442,9.389-9.442
			c2.241,0,3.654,0.48,4.268,0.8l-0.56,1.895c-0.88-0.428-2.134-0.747-3.627-0.747c-4.214,0-7.015,2.693-7.015,7.415
			c0,4.4,2.534,7.228,6.908,7.228c1.414,0,2.854-0.293,3.788-0.746L126.877,181.909z"/>
		<path d="M130.714,176.468c0.054,3.175,2.081,4.481,4.428,4.481c1.68,0,2.694-0.294,3.574-0.667l0.4,1.681
			c-0.827,0.373-2.24,0.8-4.294,0.8c-3.974,0-6.348-2.614-6.348-6.508c0-3.895,2.294-6.962,6.055-6.962
			c4.214,0,5.334,3.708,5.334,6.082c0,0.479-0.054,0.854-0.08,1.093H130.714z M137.596,174.788c0.026-1.494-0.614-3.814-3.254-3.814
			c-2.374,0-3.414,2.188-3.601,3.814H137.596z"/>
	</g>
	<g enable-background="new    ">
		<path d="M142.775,173.081c0-1.334-0.027-2.428-0.107-3.494h2.081l0.133,2.134h0.053c0.64-1.228,2.134-2.428,4.268-2.428
			c1.787,0,4.561,1.067,4.561,5.495v7.708h-2.347v-7.441c0-2.081-0.773-3.814-2.987-3.814c-1.547,0-2.747,1.094-3.147,2.4
			c-0.106,0.294-0.16,0.693-0.16,1.094v7.762h-2.347V173.081z"/>
		<path d="M160.295,165.879v3.708h3.361v1.787h-3.361v6.961c0,1.601,0.453,2.508,1.76,2.508c0.614,0,1.067-0.08,1.36-0.16
			l0.107,1.76c-0.454,0.188-1.174,0.32-2.081,0.32c-1.094,0-1.974-0.347-2.534-0.986c-0.667-0.694-0.907-1.841-0.907-3.361v-7.041
			h-2v-1.787h2v-3.095L160.295,165.879z"/>
		<path d="M166.294,173.614c0-1.521-0.027-2.827-0.107-4.027h2.054l0.08,2.533h0.107c0.586-1.733,2-2.827,3.574-2.827
			c0.267,0,0.454,0.027,0.667,0.08v2.214c-0.24-0.053-0.48-0.08-0.8-0.08c-1.653,0-2.827,1.254-3.147,3.015
			c-0.053,0.319-0.106,0.693-0.106,1.093v6.882h-2.32V173.614z"/>
		<path d="M176.054,176.468c0.054,3.175,2.081,4.481,4.428,4.481c1.68,0,2.694-0.294,3.574-0.667l0.4,1.681
			c-0.827,0.373-2.24,0.8-4.294,0.8c-3.974,0-6.348-2.614-6.348-6.508c0-3.895,2.294-6.962,6.055-6.962
			c4.214,0,5.334,3.708,5.334,6.082c0,0.479-0.054,0.854-0.08,1.093H176.054z M182.936,174.788c0.026-1.494-0.614-3.814-3.254-3.814
			c-2.374,0-3.414,2.188-3.601,3.814H182.936z"/>
		<path d="M193.999,182.496v-11.122h-1.813v-1.787h1.813v-0.613c0-1.814,0.4-3.468,1.494-4.508c0.88-0.854,2.054-1.2,3.147-1.2
			c0.827,0,1.547,0.187,2,0.373l-0.32,1.813c-0.347-0.16-0.827-0.293-1.494-0.293c-2,0-2.507,1.761-2.507,3.734v0.693h3.121v1.787
			h-3.121v11.122H193.999z"/>
		<path d="M212.881,175.935c0,4.774-3.307,6.854-6.428,6.854c-3.494,0-6.188-2.561-6.188-6.641c0-4.321,2.827-6.855,6.401-6.855
			C210.375,169.293,212.881,171.987,212.881,175.935z M202.639,176.068c0,2.827,1.627,4.961,3.921,4.961
			c2.241,0,3.921-2.107,3.921-5.015c0-2.188-1.093-4.961-3.868-4.961C203.84,171.054,202.639,173.614,202.639,176.068z"/>
		<path d="M215.838,173.614c0-1.521-0.027-2.827-0.107-4.027h2.054l0.08,2.533h0.107c0.586-1.733,2-2.827,3.574-2.827
			c0.267,0,0.454,0.027,0.667,0.08v2.214c-0.24-0.053-0.48-0.08-0.8-0.08c-1.654,0-2.827,1.254-3.147,3.015
			c-0.054,0.319-0.107,0.693-0.107,1.093v6.882h-2.32V173.614z"/>
		<path d="M232.611,164.519v7.522h8.695v-7.522h2.347v17.978h-2.347v-8.429h-8.695v8.429h-2.32v-17.978H232.611z"/>
	</g>
	<g enable-background="new    ">
		<path d="M250.471,165.959c0.027,0.801-0.56,1.44-1.494,1.44c-0.827,0-1.414-0.64-1.414-1.44c0-0.826,0.613-1.467,1.467-1.467
			C249.911,164.492,250.471,165.133,250.471,165.959z M247.857,182.496v-12.909h2.347v12.909H247.857z"/>
		<path d="M265.219,169.587c-0.053,0.934-0.106,1.974-0.106,3.547v7.495c0,2.961-0.587,4.774-1.84,5.895
			c-1.254,1.174-3.067,1.547-4.694,1.547c-1.547,0-3.254-0.373-4.294-1.066l0.587-1.787c0.854,0.533,2.187,1.014,3.788,1.014
			c2.4,0,4.161-1.254,4.161-4.508v-1.44h-0.053c-0.72,1.2-2.107,2.16-4.107,2.16c-3.201,0-5.495-2.72-5.495-6.294
			c0-4.375,2.854-6.855,5.814-6.855c2.241,0,3.467,1.174,4.027,2.241h0.054l0.106-1.947H265.219z M262.792,174.681
			c0-0.399-0.026-0.746-0.133-1.066c-0.427-1.36-1.574-2.48-3.281-2.48c-2.24,0-3.841,1.894-3.841,4.881
			c0,2.534,1.28,4.641,3.814,4.641c1.44,0,2.747-0.906,3.254-2.4c0.133-0.399,0.187-0.854,0.187-1.253V174.681z"/>
		<path d="M269.003,163.559h2.347v8.055h0.053c0.374-0.666,0.96-1.253,1.68-1.653c0.694-0.4,1.521-0.667,2.401-0.667
			c1.733,0,4.508,1.067,4.508,5.521v7.682h-2.348v-7.415c0-2.08-0.773-3.841-2.987-3.841c-1.521,0-2.721,1.067-3.147,2.348
			c-0.133,0.319-0.16,0.666-0.16,1.12v7.788h-2.347V163.559z"/>
		<path d="M285.109,176.468c0.053,3.175,2.08,4.481,4.428,4.481c1.68,0,2.693-0.294,3.574-0.667l0.399,1.681
			c-0.827,0.373-2.24,0.8-4.294,0.8c-3.975,0-6.348-2.614-6.348-6.508c0-3.895,2.293-6.962,6.055-6.962
			c4.213,0,5.334,3.708,5.334,6.082c0,0.479-0.054,0.854-0.08,1.093H285.109z M291.99,174.788c0.027-1.494-0.613-3.814-3.254-3.814
			c-2.373,0-3.414,2.188-3.601,3.814H291.99z"/>
		<path d="M297.161,173.614c0-1.521-0.026-2.827-0.106-4.027h2.053l0.08,2.533h0.107c0.586-1.733,2-2.827,3.574-2.827
			c0.267,0,0.453,0.027,0.666,0.08v2.214c-0.24-0.053-0.479-0.08-0.8-0.08c-1.653,0-2.827,1.254-3.147,3.015
			c-0.053,0.319-0.106,0.693-0.106,1.093v6.882h-2.32V173.614z"/>
		<path d="M320.922,174.067h-6.988v6.481h7.789v1.947h-10.109v-17.978h9.709v1.947h-7.389v5.682h6.988V174.067z"/>
		<path d="M335.695,163.559v15.604c0,1.146,0.026,2.454,0.106,3.334h-2.106l-0.107-2.24h-0.053c-0.721,1.44-2.294,2.533-4.401,2.533
			c-3.12,0-5.521-2.641-5.521-6.561c-0.027-4.295,2.641-6.936,5.787-6.936c1.975,0,3.308,0.934,3.895,1.974h0.053v-7.708H335.695z
			 M333.348,174.841c0-0.293-0.026-0.693-0.106-0.986c-0.347-1.494-1.627-2.721-3.388-2.721c-2.427,0-3.867,2.134-3.867,4.987
			c0,2.614,1.28,4.774,3.814,4.774c1.574,0,3.014-1.04,3.44-2.801c0.08-0.319,0.106-0.64,0.106-1.013V174.841z"/>
		<path d="M350.388,178.976c0,1.333,0.026,2.507,0.106,3.521h-2.08l-0.134-2.107h-0.054c-0.613,1.041-1.973,2.4-4.268,2.4
			c-2.026,0-4.453-1.12-4.453-5.654v-7.548h2.347v7.147c0,2.454,0.747,4.108,2.88,4.108c1.574,0,2.668-1.094,3.095-2.134
			c0.134-0.347,0.214-0.773,0.214-1.2v-7.922h2.347V178.976z"/>
		<path d="M363.48,182.016c-0.613,0.32-1.975,0.747-3.708,0.747c-3.894,0-6.428-2.641-6.428-6.588c0-3.975,2.721-6.854,6.935-6.854
			c1.387,0,2.614,0.347,3.254,0.666L363,171.801c-0.561-0.32-1.44-0.613-2.721-0.613c-2.961,0-4.561,2.187-4.561,4.881
			c0,2.987,1.92,4.827,4.48,4.827c1.334,0,2.214-0.347,2.881-0.64L363.48,182.016z"/>
		<path d="M373.372,182.496l-0.187-1.627h-0.08c-0.721,1.014-2.107,1.92-3.947,1.92c-2.614,0-3.947-1.84-3.947-3.707
			c0-3.121,2.773-4.828,7.762-4.801v-0.267c0-1.067-0.294-2.987-2.935-2.987c-1.2,0-2.454,0.373-3.36,0.96l-0.533-1.547
			c1.066-0.693,2.613-1.147,4.24-1.147c3.947,0,4.908,2.694,4.908,5.281v4.828c0,1.12,0.053,2.214,0.213,3.094H373.372z
			 M373.025,175.908c-2.561-0.054-5.468,0.4-5.468,2.907c0,1.521,1.014,2.24,2.214,2.24c1.68,0,2.747-1.066,3.121-2.16
			c0.08-0.24,0.133-0.507,0.133-0.747V175.908z"/>
		<path d="M381.797,165.879v3.708h3.361v1.787h-3.361v6.961c0,1.601,0.454,2.508,1.761,2.508c0.613,0,1.067-0.08,1.36-0.16
			l0.106,1.76c-0.453,0.188-1.173,0.32-2.08,0.32c-1.094,0-1.974-0.347-2.534-0.986c-0.666-0.694-0.906-1.841-0.906-3.361v-7.041
			h-2.001v-1.787h2.001v-3.095L381.797,165.879z"/>
		<path d="M390.41,165.959c0.026,0.801-0.561,1.44-1.494,1.44c-0.826,0-1.413-0.64-1.413-1.44c0-0.826,0.613-1.467,1.467-1.467
			C389.85,164.492,390.41,165.133,390.41,165.959z M387.797,182.496v-12.909h2.347v12.909H387.797z"/>
		<path d="M405.719,175.935c0,4.774-3.308,6.854-6.428,6.854c-3.494,0-6.188-2.561-6.188-6.641c0-4.321,2.827-6.855,6.401-6.855
			C403.211,169.293,405.719,171.987,405.719,175.935z M395.477,176.068c0,2.827,1.627,4.961,3.92,4.961
			c2.241,0,3.922-2.107,3.922-5.015c0-2.188-1.094-4.961-3.868-4.961C396.677,171.054,395.477,173.614,395.477,176.068z"/>
		<path d="M408.676,173.081c0-1.334-0.027-2.428-0.107-3.494h2.08l0.134,2.134h0.054c0.64-1.228,2.133-2.428,4.268-2.428
			c1.787,0,4.561,1.067,4.561,5.495v7.708h-2.348v-7.441c0-2.081-0.773-3.814-2.986-3.814c-1.547,0-2.748,1.094-3.148,2.4
			c-0.105,0.294-0.159,0.693-0.159,1.094v7.762h-2.347V173.081z"/>
		<path d="M429.207,164.759c1.174-0.24,2.854-0.373,4.455-0.373c2.48,0,4.08,0.453,5.201,1.467c0.906,0.8,1.413,2.027,1.413,3.414
			c0,2.374-1.493,3.947-3.388,4.588v0.08c1.387,0.479,2.214,1.76,2.641,3.627c0.587,2.508,1.014,4.241,1.387,4.935h-2.4
			c-0.293-0.507-0.693-2.054-1.2-4.294c-0.533-2.48-1.493-3.414-3.601-3.494h-2.188v7.788h-2.32V164.759z M431.527,172.947h2.374
			c2.481,0,4.055-1.36,4.055-3.414c0-2.32-1.681-3.334-4.134-3.36c-1.121,0-1.921,0.106-2.295,0.213V172.947z"/>
		<path d="M444.887,176.468c0.054,3.175,2.08,4.481,4.428,4.481c1.68,0,2.693-0.294,3.574-0.667l0.4,1.681
			c-0.827,0.373-2.24,0.8-4.295,0.8c-3.975,0-6.348-2.614-6.348-6.508c0-3.895,2.294-6.962,6.055-6.962
			c4.214,0,5.334,3.708,5.334,6.082c0,0.479-0.053,0.854-0.08,1.093H444.887z M451.769,174.788c0.026-1.494-0.614-3.814-3.255-3.814
			c-2.373,0-3.414,2.188-3.6,3.814H451.769z"/>
		<path d="M456.619,180.096c0.693,0.453,1.92,0.934,3.094,0.934c1.707,0,2.507-0.854,2.507-1.921c0-1.12-0.667-1.733-2.4-2.374
			c-2.32-0.826-3.414-2.106-3.414-3.653c0-2.081,1.681-3.788,4.454-3.788c1.307,0,2.454,0.374,3.174,0.801l-0.586,1.707
			c-0.508-0.32-1.441-0.747-2.641-0.747c-1.387,0-2.16,0.8-2.16,1.761c0,1.066,0.773,1.547,2.453,2.187
			c2.24,0.854,3.388,1.974,3.388,3.895c0,2.267-1.761,3.867-4.828,3.867c-1.413,0-2.72-0.347-3.628-0.88L456.619,180.096z"/>
		<path d="M468.805,176.468c0.054,3.175,2.081,4.481,4.428,4.481c1.681,0,2.694-0.294,3.574-0.667l0.4,1.681
			c-0.826,0.373-2.24,0.8-4.294,0.8c-3.975,0-6.349-2.614-6.349-6.508c0-3.895,2.294-6.962,6.055-6.962
			c4.215,0,5.335,3.708,5.335,6.082c0,0.479-0.054,0.854-0.08,1.093H468.805z M475.687,174.788c0.026-1.494-0.613-3.814-3.254-3.814
			c-2.374,0-3.414,2.188-3.601,3.814H475.687z"/>
		<path d="M488.006,182.496l-0.187-1.627h-0.08c-0.72,1.014-2.107,1.92-3.948,1.92c-2.613,0-3.947-1.84-3.947-3.707
			c0-3.121,2.774-4.828,7.762-4.801v-0.267c0-1.067-0.293-2.987-2.934-2.987c-1.2,0-2.454,0.373-3.361,0.96l-0.533-1.547
			c1.067-0.693,2.614-1.147,4.241-1.147c3.948,0,4.907,2.694,4.907,5.281v4.828c0,1.12,0.054,2.214,0.214,3.094H488.006z
			 M487.659,175.908c-2.561-0.054-5.468,0.4-5.468,2.907c0,1.521,1.014,2.24,2.214,2.24c1.681,0,2.747-1.066,3.12-2.16
			c0.08-0.24,0.134-0.507,0.134-0.747V175.908z"/>
		<path d="M493.711,173.614c0-1.521-0.027-2.827-0.107-4.027h2.054l0.08,2.533h0.106c0.587-1.733,2.001-2.827,3.574-2.827
			c0.268,0,0.453,0.027,0.667,0.08v2.214c-0.24-0.053-0.479-0.08-0.8-0.08c-1.654,0-2.828,1.254-3.147,3.015
			c-0.054,0.319-0.106,0.693-0.106,1.093v6.882h-2.32V173.614z"/>
		<path d="M511.365,182.016c-0.613,0.32-1.974,0.747-3.707,0.747c-3.895,0-6.428-2.641-6.428-6.588c0-3.975,2.72-6.854,6.934-6.854
			c1.388,0,2.614,0.347,3.255,0.666l-0.534,1.814c-0.56-0.32-1.439-0.613-2.721-0.613c-2.96,0-4.561,2.187-4.561,4.881
			c0,2.987,1.92,4.827,4.48,4.827c1.334,0,2.215-0.347,2.881-0.64L511.365,182.016z"/>
		<path d="M514.109,163.559h2.348v8.055h0.053c0.374-0.666,0.961-1.253,1.681-1.653c0.693-0.4,1.521-0.667,2.4-0.667
			c1.733,0,4.508,1.067,4.508,5.521v7.682h-2.347v-7.415c0-2.08-0.773-3.841-2.988-3.841c-1.52,0-2.721,1.067-3.146,2.348
			c-0.134,0.319-0.16,0.666-0.16,1.12v7.788h-2.348V163.559z"/>
	</g>
	<g enable-background="new    ">
		<path d="M26.299,214.51l-0.187-1.627h-0.08c-0.72,1.014-2.107,1.92-3.948,1.92c-2.614,0-3.947-1.84-3.947-3.707
			c0-3.121,2.774-4.828,7.762-4.801v-0.267c0-1.067-0.293-2.987-2.934-2.987c-1.2,0-2.454,0.373-3.361,0.96l-0.533-1.547
			c1.067-0.693,2.614-1.147,4.241-1.147c3.948,0,4.908,2.694,4.908,5.281v4.828c0,1.12,0.053,2.214,0.213,3.094H26.299z
			 M25.953,207.922c-2.561-0.054-5.468,0.4-5.468,2.907c0,1.521,1.014,2.24,2.214,2.24c1.68,0,2.747-1.066,3.121-2.16
			c0.08-0.24,0.133-0.507,0.133-0.747V207.922z"/>
		<path d="M32.004,205.095c0-1.334-0.027-2.428-0.107-3.494h2.081l0.133,2.134h0.053c0.64-1.228,2.134-2.428,4.268-2.428
			c1.787,0,4.561,1.067,4.561,5.495v7.708h-2.347v-7.441c0-2.081-0.773-3.814-2.987-3.814c-1.547,0-2.747,1.094-3.147,2.4
			c-0.106,0.294-0.16,0.693-0.16,1.094v7.762h-2.347V205.095z"/>
		<path d="M57.952,195.572v15.604c0,1.146,0.026,2.454,0.106,3.334h-2.107l-0.107-2.24h-0.053c-0.72,1.44-2.293,2.533-4.401,2.533
			c-3.121,0-5.521-2.641-5.521-6.561c-0.027-4.295,2.641-6.936,5.788-6.936c1.974,0,3.308,0.934,3.895,1.974h0.053v-7.708H57.952z
			 M55.605,206.854c0-0.293-0.027-0.693-0.107-0.986c-0.347-1.494-1.627-2.721-3.387-2.721c-2.427,0-3.868,2.134-3.868,4.987
			c0,2.614,1.28,4.774,3.814,4.774c1.574,0,3.014-1.04,3.44-2.801c0.08-0.319,0.107-0.64,0.107-1.013V206.854z"/>
		<path d="M67.255,211.683c1.04,0.64,2.561,1.174,4.161,1.174c2.374,0,3.761-1.254,3.761-3.067c0-1.681-0.96-2.641-3.388-3.574
			c-2.934-1.04-4.748-2.561-4.748-5.095c0-2.801,2.32-4.881,5.814-4.881c1.84,0,3.174,0.427,3.974,0.88l-0.64,1.894
			c-0.586-0.319-1.787-0.854-3.414-0.854c-2.454,0-3.387,1.468-3.387,2.694c0,1.681,1.094,2.507,3.574,3.468
			c3.041,1.173,4.587,2.641,4.587,5.28c0,2.774-2.054,5.175-6.294,5.175c-1.734,0-3.627-0.507-4.588-1.146L67.255,211.683z"/>
		<path d="M90.003,214.029c-0.613,0.32-1.974,0.747-3.708,0.747c-3.894,0-6.428-2.641-6.428-6.588c0-3.975,2.72-6.854,6.935-6.854
			c1.387,0,2.614,0.347,3.254,0.666l-0.534,1.814c-0.56-0.32-1.44-0.613-2.721-0.613c-2.96,0-4.561,2.187-4.561,4.881
			c0,2.987,1.92,4.827,4.481,4.827c1.334,0,2.214-0.347,2.881-0.64L90.003,214.029z"/>
		<path d="M95.361,197.973c0.026,0.801-0.56,1.44-1.494,1.44c-0.827,0-1.414-0.64-1.414-1.44c0-0.826,0.613-1.467,1.467-1.467
			C94.801,196.506,95.361,197.146,95.361,197.973z M92.748,214.51v-12.909h2.347v12.909H92.748z"/>
		<path d="M100.293,208.481c0.053,3.175,2.081,4.481,4.428,4.481c1.68,0,2.694-0.294,3.574-0.667l0.4,1.681
			c-0.827,0.373-2.24,0.8-4.294,0.8c-3.975,0-6.348-2.614-6.348-6.508c0-3.895,2.293-6.962,6.055-6.962
			c4.214,0,5.334,3.708,5.334,6.082c0,0.479-0.054,0.854-0.08,1.093H100.293z M107.175,206.802c0.027-1.494-0.613-3.814-3.254-3.814
			c-2.374,0-3.414,2.188-3.601,3.814H107.175z"/>
		<path d="M112.346,205.095c0-1.334-0.027-2.428-0.107-3.494h2.081l0.133,2.134h0.053c0.64-1.228,2.134-2.428,4.268-2.428
			c1.787,0,4.561,1.067,4.561,5.495v7.708h-2.347v-7.441c0-2.081-0.773-3.814-2.987-3.814c-1.547,0-2.747,1.094-3.147,2.4
			c-0.106,0.294-0.16,0.693-0.16,1.094v7.762h-2.347V205.095z"/>
		<path d="M136.347,214.029c-0.613,0.32-1.974,0.747-3.708,0.747c-3.894,0-6.428-2.641-6.428-6.588c0-3.975,2.721-6.854,6.935-6.854
			c1.387,0,2.614,0.347,3.254,0.666l-0.533,1.814c-0.56-0.32-1.44-0.613-2.721-0.613c-2.96,0-4.561,2.187-4.561,4.881
			c0,2.987,1.92,4.827,4.481,4.827c1.334,0,2.214-0.347,2.881-0.64L136.347,214.029z"/>
		<path d="M140.238,208.481c0.054,3.175,2.081,4.481,4.428,4.481c1.68,0,2.694-0.294,3.574-0.667l0.4,1.681
			c-0.827,0.373-2.24,0.8-4.294,0.8c-3.974,0-6.348-2.614-6.348-6.508c0-3.895,2.294-6.962,6.055-6.962
			c4.214,0,5.334,3.708,5.334,6.082c0,0.479-0.054,0.854-0.08,1.093H140.238z M147.12,206.802c0.026-1.494-0.614-3.814-3.254-3.814
			c-2.374,0-3.414,2.188-3.601,3.814H147.12z"/>
		<path d="M157.704,211.683c1.04,0.64,2.561,1.174,4.161,1.174c2.374,0,3.761-1.254,3.761-3.067c0-1.681-0.96-2.641-3.388-3.574
			c-2.934-1.04-4.748-2.561-4.748-5.095c0-2.801,2.32-4.881,5.814-4.881c1.84,0,3.174,0.427,3.974,0.88l-0.64,1.894
			c-0.586-0.319-1.787-0.854-3.414-0.854c-2.454,0-3.387,1.468-3.387,2.694c0,1.681,1.094,2.507,3.574,3.468
			c3.041,1.173,4.587,2.641,4.587,5.28c0,2.774-2.054,5.175-6.294,5.175c-1.734,0-3.627-0.507-4.588-1.146L157.704,211.683z"/>
		<path d="M173.837,197.893v3.708h3.361v1.787h-3.361v6.961c0,1.601,0.454,2.508,1.76,2.508c0.613,0,1.067-0.08,1.36-0.16
			l0.106,1.76c-0.453,0.188-1.173,0.32-2.08,0.32c-1.094,0-1.974-0.347-2.534-0.986c-0.667-0.694-0.907-1.841-0.907-3.361v-7.041h-2
			v-1.787h2v-3.095L173.837,197.893z"/>
		<path d="M190.639,210.989c0,1.333,0.026,2.507,0.106,3.521h-2.08l-0.134-2.107h-0.053c-0.613,1.041-1.974,2.4-4.268,2.4
			c-2.027,0-4.454-1.12-4.454-5.654v-7.548h2.347v7.147c0,2.454,0.747,4.108,2.88,4.108c1.574,0,2.667-1.094,3.094-2.134
			c0.133-0.347,0.213-0.773,0.213-1.2v-7.922h2.347V210.989z"/>
		<path d="M205.678,195.572v15.604c0,1.146,0.026,2.454,0.106,3.334h-2.107l-0.107-2.24h-0.053c-0.72,1.44-2.293,2.533-4.401,2.533
			c-3.121,0-5.521-2.641-5.521-6.561c-0.027-4.295,2.641-6.936,5.788-6.936c1.974,0,3.308,0.934,3.895,1.974h0.053v-7.708H205.678z
			 M203.331,206.854c0-0.293-0.027-0.693-0.107-0.986c-0.347-1.494-1.627-2.721-3.387-2.721c-2.427,0-3.868,2.134-3.868,4.987
			c0,2.614,1.28,4.774,3.814,4.774c1.574,0,3.014-1.04,3.44-2.801c0.08-0.319,0.107-0.64,0.107-1.013V206.854z"/>
		<path d="M212.182,197.973c0.027,0.801-0.56,1.44-1.494,1.44c-0.827,0-1.414-0.64-1.414-1.44c0-0.826,0.613-1.467,1.467-1.467
			C211.622,196.506,212.182,197.146,212.182,197.973z M209.568,214.51v-12.909h2.347v12.909H209.568z"/>
		<path d="M217.114,208.481c0.054,3.175,2.081,4.481,4.428,4.481c1.68,0,2.694-0.294,3.574-0.667l0.4,1.681
			c-0.827,0.373-2.24,0.8-4.294,0.8c-3.974,0-6.348-2.614-6.348-6.508c0-3.895,2.294-6.962,6.055-6.962
			c4.214,0,5.334,3.708,5.334,6.082c0,0.479-0.054,0.854-0.08,1.093H217.114z M223.996,206.802c0.026-1.494-0.614-3.814-3.254-3.814
			c-2.374,0-3.414,2.188-3.601,3.814H223.996z"/>
		<path d="M228.847,212.109c0.693,0.453,1.92,0.934,3.094,0.934c1.707,0,2.507-0.854,2.507-1.921c0-1.12-0.667-1.733-2.4-2.374
			c-2.32-0.826-3.414-2.106-3.414-3.653c0-2.081,1.68-3.788,4.455-3.788c1.307,0,2.454,0.374,3.174,0.801l-0.587,1.707
			c-0.507-0.32-1.44-0.747-2.641-0.747c-1.387,0-2.16,0.8-2.16,1.761c0,1.066,0.773,1.547,2.454,2.187
			c2.241,0.854,3.387,1.974,3.387,3.895c0,2.267-1.76,3.867-4.828,3.867c-1.414,0-2.72-0.347-3.627-0.88L228.847,212.109z"/>
	</g>
	<polygon fill="#0069B4" points="253.418,200.343 257.069,214.518 274.14,214.518 270.801,200.343 	"/>
	<path fill="#0069B4" d="M544.354,5h-17.753c0,0-8.172,32.374-14.802,55.935c-7.054,25.068-13.859,58.581-13.859,58.581h-0.379
		c0,0-2.064-12.418-2.771-16.502c-0.703-4.086-5.313-24.376-6.425-29.039C486.966,68.091,471.734,5,471.734,5h-9.57h-0.377h-8.254
		c0,0-16.544,63.159-18.205,68.974c-7.118,24.943-10.77,45.854-10.77,45.854h-0.441c0,0-3.085-16.06-4.221-21.415
		c-0.746-3.521-5.229-22.991-5.229-22.991H397.66l16.253,64.373h10.204h0.441h7.556c0,0,17.146-61.897,21.419-77.979
		c6.045-22.739,8.254-36.218,8.254-36.218h0.377c0,0,2.267,14.171,3.778,21.919c1.02,5.225,4.767,21.026,5.792,25.26
		c4.625,19.031,16.188,67.018,16.188,67.018h9.638h0.379h8.253L544.354,5L544.354,5z M394.011,61.249h17.384L398.169,5H379.71
		L394.011,61.249L394.011,61.249z M394.011,61.299h-34.493V5h-17.6v56.411l-65.111-0.007L276.721,5h-17.4v134.792h17.4V75.387
		h65.197v64.405h17.6V75.471h38.144L394.011,61.299L394.011,61.299z M140.692,139.792h98.396v-14.597h-75.397v-0.604L238.089,15.6V5
		h-90.997v14.6h68.397v0.6l-74.797,109.394V139.792L140.692,139.792z M109.443,122.521c12.526-12.327,19.286-30.221,19.286-52.09
		c0-21.672-6.958-37.18-18.888-48.116C98.112,11.38,80.416,5.614,55.563,5.614c-13.719,0-26.245,1.194-36.782,2.784v131.82
		c8.747,0.994,19.086,1.591,31.413,1.591C76.241,141.809,96.917,135.049,109.443,122.521L109.443,122.521z M110.637,71.027
		c0,36.187-20.082,56.864-57.062,56.864c-6.76,0-13.123-0.197-17.496-0.994V21.122c4.572-0.993,11.333-1.789,20.28-1.789
		C92.941,19.333,110.834,39.415,110.637,71.027L110.637,71.027z"/>
</g>
</svg>
