<svg xmlns="http://www.w3.org/2000/svg" viewBox="0 0 135.39 107.13"><defs><style>.a{fill:#1d1d1b;}.b{fill:#f8d200;}.c{fill:#e30613;}</style></defs><title>logo-bmbf-en</title><path class="a" d="M270.3,406.68V396.37h5l-.09,1H271.6v3.81H275v1H271.6v4.44Zm10.86-4.75c0,.31,0,.58,0,.8s0,.42-.06.59h-3.65a3.21,3.21,0,0,0,.54,1.87,1.68,1.68,0,0,0,1.39.6,2,2,0,0,0,.57-.07,2.19,2.19,0,0,0,.44-.18,2,2,0,0,0,.31-.21l.19-.16.45.85-.22.22a2,2,0,0,1-.4.28,2.85,2.85,0,0,1-.62.25,3.25,3.25,0,0,1-.88.1,3.14,3.14,0,0,1-1.21-.22,2.29,2.29,0,0,1-.92-.69,3.38,3.38,0,0,1-.59-1.2,6.37,6.37,0,0,1-.21-1.74,5.6,5.6,0,0,1,.22-1.65,3.31,3.31,0,0,1,.59-1.14,2.34,2.34,0,0,1,.86-.66,2.57,2.57,0,0,1,1.06-.22,2,2,0,0,1,1.61.65A2.85,2.85,0,0,1,281.16,401.93Zm-2.26-1.61a1.21,1.21,0,0,0-1,.54,3,3,0,0,0-.45,1.55H280a1.64,1.64,0,0,0,0-.22c0-.09,0-.2,0-.31a1.94,1.94,0,0,0-.3-1.16A1,1,0,0,0,278.9,400.31Zm3.54,2.88a5.08,5.08,0,0,1,.28-1.82,3.37,3.37,0,0,1,.73-1.18,2.54,2.54,0,0,1,1-.63,3.58,3.58,0,0,1,1.13-.19,3,3,0,0,1,.59.05,2,2,0,0,1,.42.13v-3.44l1.21-.13v10.7h-1.1v-.76h0a1.71,1.71,0,0,1-.16.25,1.66,1.66,0,0,1-.33.31,2,2,0,0,1-.52.27,2.15,2.15,0,0,1-.73.11,2.32,2.32,0,0,1-1-.2,2.06,2.06,0,0,1-.8-.64,3.37,3.37,0,0,1-.54-1.14A6.14,6.14,0,0,1,282.44,403.2Zm2.83,2.58a1.6,1.6,0,0,0,.51-.07,1.58,1.58,0,0,0,.39-.19,1.6,1.6,0,0,0,.28-.23,1.67,1.67,0,0,0,.17-.21v-4.42a1.81,1.81,0,0,0-.38-.18,1.68,1.68,0,0,0-.54-.08,2.12,2.12,0,0,0-.78.14,1.52,1.52,0,0,0-.63.47,2.45,2.45,0,0,0-.42.85,4.55,4.55,0,0,0-.16,1.28,5.19,5.19,0,0,0,.13,1.25,2.34,2.34,0,0,0,.35.81,1.34,1.34,0,0,0,.51.44A1.36,1.36,0,0,0,285.27,405.78Zm9-3.86c0,.31,0,.58,0,.8s0,.42-.06.59h-3.65a3.19,3.19,0,0,0,.54,1.87,1.68,1.68,0,0,0,1.39.6,2,2,0,0,0,.56-.07,2.14,2.14,0,0,0,.44-.18,2.06,2.06,0,0,0,.31-.21l.19-.16.45.85-.22.22a2,2,0,0,1-.4.28,2.82,2.82,0,0,1-.62.25,3.25,3.25,0,0,1-.88.1,3.13,3.13,0,0,1-1.21-.22,2.3,2.3,0,0,1-.92-.69,3.38,3.38,0,0,1-.59-1.2,6.34,6.34,0,0,1-.21-1.74,5.56,5.56,0,0,1,.22-1.65,3.31,3.31,0,0,1,.59-1.14,2.35,2.35,0,0,1,.86-.66,2.57,2.57,0,0,1,1.06-.22,2,2,0,0,1,1.61.65A2.85,2.85,0,0,1,294.24,401.93ZM292,400.31a1.21,1.21,0,0,0-1,.54,3,3,0,0,0-.45,1.55h2.6a1.92,1.92,0,0,0,0-.22c0-.09,0-.2,0-.31a2,2,0,0,0-.3-1.16A1,1,0,0,0,292,400.31Zm7,.25-.19-.07a1.44,1.44,0,0,0-.4,0,1.23,1.23,0,0,0-.89.31,1.79,1.79,0,0,0-.45.66v5.26h-1.21v-7.17H297v1h0a2.4,2.4,0,0,1,.19-.41,1.43,1.43,0,0,1,.3-.36,1.32,1.32,0,0,1,.42-.25,1.73,1.73,0,0,1,.59-.09,1.54,1.54,0,0,1,.41,0l.24.07Zm.7,4.29a2.07,2.07,0,0,1,.24-1,1.94,1.94,0,0,1,.64-.68,2.74,2.74,0,0,1,.94-.37,5.71,5.71,0,0,1,1.15-.11H303V402a1.85,1.85,0,0,0-.32-1.26,1.17,1.17,0,0,0-.9-.34,1.6,1.6,0,0,0-.89.23,5.05,5.05,0,0,0-.56.41l-.51-.81.3-.27a2.61,2.61,0,0,1,.46-.28,3.15,3.15,0,0,1,.61-.22,3.07,3.07,0,0,1,.77-.09,2.15,2.15,0,0,1,1.67.61,2.84,2.84,0,0,1,.57,2v3.27c0,.31,0,.61,0,.9a5.75,5.75,0,0,0,.06.59h-1.14l0-.79h0a1.82,1.82,0,0,1-.18.31,1.53,1.53,0,0,1-.3.31,1.74,1.74,0,0,1-.43.25,1.54,1.54,0,0,1-.59.1,1.9,1.9,0,0,1-.75-.15,1.85,1.85,0,0,1-.61-.42,1.89,1.89,0,0,1-.4-.64A2.2,2.2,0,0,1,299.69,404.86Zm2.16,1a1.24,1.24,0,0,0,.45-.08,1.42,1.42,0,0,0,.33-.18,1.13,1.13,0,0,0,.24-.23l.17-.22v-1.58h-.39a2.77,2.77,0,0,0-1.31.3.93.93,0,0,0-.45.87,1.19,1.19,0,0,0,.25.83A.9.9,0,0,0,301.85,405.83Zm5.39-.82a1.16,1.16,0,0,0,.13.63.5.5,0,0,0,.44.18,1.07,1.07,0,0,0,.28,0l.17-.06.1.9-.33.12a2.18,2.18,0,0,1-.64.07,1.33,1.33,0,0,1-1-.37,1.87,1.87,0,0,1-.37-1.33v-9l1.21-.13Zm14.17-8.64v10.31h-1.25v-5.81q0-.45,0-.84c0-.26,0-.49,0-.69s0-.35,0-.46h0q-.07.34-.3,1.11t-.53,1.65l-1.7,5h-1l-1.7-5q-.3-.88-.53-1.65t-.3-1.11h0c0,.12,0,.28,0,.48s0,.43,0,.68,0,.53,0,.83v5.81h-1.25V396.37h1.45l2.43,7.11c.11.33.21.65.29,1a4.64,4.64,0,0,1,.16.81h0a3.89,3.89,0,0,1,.14-.81q.13-.46.29-1l2.43-7.13Zm3.3,10.31H323.5v-7.17h1.21Zm-.59-8.91a.78.78,0,0,1-.6-.24.88.88,0,0,1-.22-.63.86.86,0,0,1,.22-.61.78.78,0,0,1,.6-.24.75.75,0,0,1,.58.24.86.86,0,0,1,.22.61.88.88,0,0,1-.22.63A.75.75,0,0,1,324.11,397.77Zm6.34,8.91v-4.62a2.17,2.17,0,0,0-.3-1.31,1.1,1.1,0,0,0-.93-.4,1.43,1.43,0,0,0-.89.27,3.19,3.19,0,0,0-.57.52v5.53h-1.2v-7.17h1.1v.81h0a1.5,1.5,0,0,1,.19-.26,1.91,1.91,0,0,1,.39-.33,2.76,2.76,0,0,1,.56-.28,2.17,2.17,0,0,1,.74-.12,2.52,2.52,0,0,1,.86.14,1.53,1.53,0,0,1,.65.46,2.21,2.21,0,0,1,.42.81,4.52,4.52,0,0,1,.15,1.23v4.71Zm4.21,0h-1.2v-7.17h1.2Zm-.59-8.91a.78.78,0,0,1-.6-.24.88.88,0,0,1-.22-.63.86.86,0,0,1,.22-.61.78.78,0,0,1,.6-.24.75.75,0,0,1,.58.24.86.86,0,0,1,.22.61.88.88,0,0,1-.22.63A.75.75,0,0,1,334.06,397.77Zm5.52,3.18a2.94,2.94,0,0,0-.43-.37,1.34,1.34,0,0,0-.82-.23,1.06,1.06,0,0,0-.73.22.69.69,0,0,0-.25.54,1,1,0,0,0,.23.66,3.22,3.22,0,0,0,.71.56l.45.27a4.42,4.42,0,0,1,1.14.93,2.12,2.12,0,0,1-.17,2.73,2.29,2.29,0,0,1-1.69.58,2.86,2.86,0,0,1-.76-.09,3.36,3.36,0,0,1-.57-.21,1.89,1.89,0,0,1-.41-.26A2.51,2.51,0,0,1,336,406l.58-1,.21.21a1.91,1.91,0,0,0,.31.23,1.85,1.85,0,0,0,.4.19,1.66,1.66,0,0,0,.52.07,1.23,1.23,0,0,0,.82-.24.74.74,0,0,0,.28-.58,1.36,1.36,0,0,0-.06-.44,1.07,1.07,0,0,0-.2-.34,2,2,0,0,0-.33-.28l-.45-.3-.45-.28a4.28,4.28,0,0,1-1-.91,1.91,1.91,0,0,1-.38-1.23,1.72,1.72,0,0,1,.16-.74,1.75,1.75,0,0,1,.44-.58,2.14,2.14,0,0,1,.66-.39,2.32,2.32,0,0,1,.81-.14,2.71,2.71,0,0,1,.71.08,2.06,2.06,0,0,1,.51.21,2.3,2.3,0,0,1,.36.25l.23.22Zm5.18-.46H343.2v4a2,2,0,0,0,.19,1,.75.75,0,0,0,.66.28,1.3,1.3,0,0,0,.46-.07,1.75,1.75,0,0,0,.28-.13l.16,1a2.08,2.08,0,0,1-.36.19,1.88,1.88,0,0,1-.76.13,1.77,1.77,0,0,1-1.38-.52,2.55,2.55,0,0,1-.46-1.71v-4.14h-.86v-.81l.86-.18.13-2h1.07v2h1.71Zm4.51.07-.2-.07a1.43,1.43,0,0,0-.4,0,1.23,1.23,0,0,0-.89.31,1.74,1.74,0,0,0-.45.66v5.26h-1.21v-7.17h1.1v1h0a2.39,2.39,0,0,1,.19-.41,1.5,1.5,0,0,1,.3-.36,1.3,1.3,0,0,1,.42-.25,1.72,1.72,0,0,1,.59-.09,1.55,1.55,0,0,1,.41,0l.24.07Zm6-1.06L353,407.1a5.62,5.62,0,0,1-.95,2,2,2,0,0,1-1.62.67,1.18,1.18,0,0,1-.37-.05l-.21-.08v-1l.19.07a1.11,1.11,0,0,0,.31,0,1.19,1.19,0,0,0,1-.4,3.44,3.44,0,0,0,.57-1.24l.1-.37-2.31-7.16H351l1.12,4c.11.41.21.79.3,1.14a5.64,5.64,0,0,1,.16.95h0a7.56,7.56,0,0,1,.14-.94c.08-.35.17-.73.28-1.14l1-4Zm-85.5,18.65a5.59,5.59,0,0,1,.23-1.7,3.31,3.31,0,0,1,.62-1.17,2.44,2.44,0,0,1,.91-.67,2.88,2.88,0,0,1,2.19,0,2.27,2.27,0,0,1,.88.67,3.33,3.33,0,0,1,.59,1.17,5.94,5.94,0,0,1,.22,1.7,5.82,5.82,0,0,1-.22,1.72,3.24,3.24,0,0,1-.62,1.17,2.37,2.37,0,0,1-.91.66,2.93,2.93,0,0,1-1.1.21,2.85,2.85,0,0,1-1.1-.21,2.22,2.22,0,0,1-.88-.66,3.38,3.38,0,0,1-.59-1.17A6,6,0,0,1,269.72,418.16Zm4.39,0a4,4,0,0,0-.42-2.08,1.31,1.31,0,0,0-1.16-.65,1.29,1.29,0,0,0-1.15.65,4.05,4.05,0,0,0-.41,2.08,3.86,3.86,0,0,0,.42,2.06,1.32,1.32,0,0,0,1.16.63,1.3,1.3,0,0,0,1.15-.63A3.91,3.91,0,0,0,274.11,418.16Zm5.68-2.6h-1.46v6.19h-1.21v-6.19h-.86v-.81l.86-.16v-1.43a2.76,2.76,0,0,1,.16-1,2,2,0,0,1,.43-.69,1.56,1.56,0,0,1,.62-.39,2.39,2.39,0,0,1,.76-.12,1.8,1.8,0,0,1,.65.11,2.11,2.11,0,0,1,.36.16l-.25,1-.25-.13a1.07,1.07,0,0,0-.4-.07.8.8,0,0,0-.66.27,1.6,1.6,0,0,0-.22,1v1.28h1.61Zm9.29-3.09h-3.66V416h3.36v1h-3.36v3.62h4l-.07,1.08h-5.25V411.44h5Zm1.41,5.8a5.11,5.11,0,0,1,.28-1.82,3.35,3.35,0,0,1,.73-1.18,2.55,2.55,0,0,1,1-.63,3.59,3.59,0,0,1,1.13-.19,2.94,2.94,0,0,1,.59.05,2,2,0,0,1,.42.13v-3.44l1.21-.14v10.7h-1.1V421h0a1.55,1.55,0,0,1-.16.25,1.69,1.69,0,0,1-.33.31,2,2,0,0,1-.52.27,2.18,2.18,0,0,1-.73.11,2.33,2.33,0,0,1-1-.2,2.07,2.07,0,0,1-.8-.64,3.33,3.33,0,0,1-.54-1.13A6.12,6.12,0,0,1,290.49,418.26Zm2.83,2.58a1.59,1.59,0,0,0,.51-.07,1.54,1.54,0,0,0,.39-.19,1.66,1.66,0,0,0,.27-.23,1.59,1.59,0,0,0,.17-.21v-4.42a1.83,1.83,0,0,0-.38-.18,1.69,1.69,0,0,0-.54-.07,2.14,2.14,0,0,0-.78.14,1.53,1.53,0,0,0-.63.47,2.46,2.46,0,0,0-.42.85,4.57,4.57,0,0,0-.16,1.28,5.23,5.23,0,0,0,.13,1.25,2.32,2.32,0,0,0,.35.81,1.34,1.34,0,0,0,.5.44A1.36,1.36,0,0,0,293.32,420.85Zm9.39.9h-1.1v-.81h0a1.56,1.56,0,0,1-.2.26,1.89,1.89,0,0,1-.38.33,2.66,2.66,0,0,1-.56.28,2.1,2.1,0,0,1-.73.12,2.42,2.42,0,0,1-.86-.14,1.57,1.57,0,0,1-.65-.46,2.11,2.11,0,0,1-.41-.81,4.53,4.53,0,0,1-.14-1.23v-4.71h1.21v4.62a2.15,2.15,0,0,0,.29,1.28,1.06,1.06,0,0,0,.9.38,1.44,1.44,0,0,0,.88-.26,3,3,0,0,0,.57-.52v-5.5h1.21Zm5.82-5.78-.14-.13a1.61,1.61,0,0,0-.25-.18,1.73,1.73,0,0,0-.36-.16,1.52,1.52,0,0,0-.47-.07,1.85,1.85,0,0,0-.72.14,1.45,1.45,0,0,0-.58.46,2.35,2.35,0,0,0-.39.81,4.55,4.55,0,0,0-.14,1.22,6,6,0,0,0,.13,1.33,2.59,2.59,0,0,0,.35.86,1.29,1.29,0,0,0,.54.46,1.7,1.7,0,0,0,.71.14,1.51,1.51,0,0,0,.84-.19,2.76,2.76,0,0,0,.41-.31l.49.84a2.09,2.09,0,0,1-.21.22,2,2,0,0,1-.37.25,2.48,2.48,0,0,1-.54.2,3,3,0,0,1-.74.08,3.16,3.16,0,0,1-1.11-.19,2.22,2.22,0,0,1-.91-.64,3.22,3.22,0,0,1-.61-1.16,6.15,6.15,0,0,1-.22-1.78,5,5,0,0,1,.27-1.75,3.24,3.24,0,0,1,.7-1.16,2.65,2.65,0,0,1,1-.64,3,3,0,0,1,1.06-.2,3,3,0,0,1,.71.08,2.34,2.34,0,0,1,.52.19,1.63,1.63,0,0,1,.36.24l.23.22Zm1.36,4a2.09,2.09,0,0,1,.24-1,2,2,0,0,1,.64-.68,2.76,2.76,0,0,1,.95-.37,5.78,5.78,0,0,1,1.15-.11h.37V417a1.86,1.86,0,0,0-.32-1.25,1.17,1.17,0,0,0-.9-.34,1.6,1.6,0,0,0-.89.23,5.31,5.31,0,0,0-.57.41l-.5-.81a3.82,3.82,0,0,1,.3-.27,2.56,2.56,0,0,1,.45-.28,3.15,3.15,0,0,1,.61-.22,3.08,3.08,0,0,1,.77-.09,2.16,2.16,0,0,1,1.67.61,2.86,2.86,0,0,1,.56,2v3.27c0,.31,0,.61,0,.9s0,.49.06.59h-1.15l0-.79h0a1.77,1.77,0,0,1-.18.31,1.4,1.4,0,0,1-.3.31,1.78,1.78,0,0,1-.43.25,1.55,1.55,0,0,1-.6.11,1.9,1.9,0,0,1-.75-.15,1.87,1.87,0,0,1-.61-.42,1.84,1.84,0,0,1-.4-.63A2.13,2.13,0,0,1,309.88,419.92Zm2.16,1a1.25,1.25,0,0,0,.45-.07,1.4,1.4,0,0,0,.33-.18,1.25,1.25,0,0,0,.24-.23l.17-.22v-1.58l-.39,0a2.76,2.76,0,0,0-1.31.3.93.93,0,0,0-.45.87,1.19,1.19,0,0,0,.25.83A.9.9,0,0,0,312,420.89Zm7.25-5.33h-1.56v4a1.93,1.93,0,0,0,.19,1,.74.74,0,0,0,.65.28,1.28,1.28,0,0,0,.46-.07,1.6,1.6,0,0,0,.28-.13l.16,1a2.07,2.07,0,0,1-.36.19,1.87,1.87,0,0,1-.76.13,1.77,1.77,0,0,1-1.38-.52,2.54,2.54,0,0,1-.46-1.71v-4.14h-.86v-.81l.86-.18.13-2h1.07v2h1.71Zm2.57,6.19h-1.21v-7.17h1.21Zm-.6-8.9a.77.77,0,0,1-.6-.24.87.87,0,0,1-.22-.63.86.86,0,0,1,.22-.61.77.77,0,0,1,.6-.24.76.76,0,0,1,.58.24.86.86,0,0,1,.22.61.88.88,0,0,1-.22.63A.76.76,0,0,1,321.26,412.84Zm2.11,5.32a5.51,5.51,0,0,1,.23-1.7,3.27,3.27,0,0,1,.62-1.17,2.46,2.46,0,0,1,.91-.67,2.89,2.89,0,0,1,2.2,0,2.28,2.28,0,0,1,.88.67,3.37,3.37,0,0,1,.59,1.17,6,6,0,0,1,.21,1.7,5.85,5.85,0,0,1-.22,1.72,3.26,3.26,0,0,1-.62,1.17,2.37,2.37,0,0,1-.92.66,2.9,2.9,0,0,1-1.1.21,2.85,2.85,0,0,1-1.1-.21,2.22,2.22,0,0,1-.88-.66,3.39,3.39,0,0,1-.59-1.17A6,6,0,0,1,323.38,418.16Zm4.39,0a4,4,0,0,0-.41-2.08,1.36,1.36,0,0,0-2.31,0,4.06,4.06,0,0,0-.41,2.08,3.88,3.88,0,0,0,.42,2.06,1.32,1.32,0,0,0,1.16.63,1.3,1.3,0,0,0,1.15-.63A3.93,3.93,0,0,0,327.76,418.16Zm6.67,3.59v-4.62a2.19,2.19,0,0,0-.3-1.31,1.1,1.1,0,0,0-.93-.39,1.44,1.44,0,0,0-.89.27,3.28,3.28,0,0,0-.57.52v5.53h-1.2v-7.17h1.1v.81h0a1.38,1.38,0,0,1,.19-.26,1.84,1.84,0,0,1,.39-.33,2.7,2.7,0,0,1,.57-.28,2.15,2.15,0,0,1,.74-.12,2.5,2.5,0,0,1,.86.14,1.55,1.55,0,0,1,.65.46,2.22,2.22,0,0,1,.42.81,4.44,4.44,0,0,1,.15,1.23v4.71ZM269.63,435a2.08,2.08,0,0,1,.24-1,1.94,1.94,0,0,1,.64-.68,2.68,2.68,0,0,1,.94-.37,5.66,5.66,0,0,1,1.15-.11H273v-.69a1.86,1.86,0,0,0-.32-1.25,1.17,1.17,0,0,0-.9-.34,1.61,1.61,0,0,0-.89.23,5.42,5.42,0,0,0-.56.41l-.51-.81a3.63,3.63,0,0,1,.3-.27,2.49,2.49,0,0,1,.45-.29,3.15,3.15,0,0,1,.61-.22,3,3,0,0,1,.77-.09,2.15,2.15,0,0,1,1.67.61,2.85,2.85,0,0,1,.56,2v3.27c0,.31,0,.61,0,.9a5.84,5.84,0,0,0,.06.59h-1.15l0-.79h0a1.92,1.92,0,0,1-.18.31,1.52,1.52,0,0,1-.3.31,1.84,1.84,0,0,1-.43.25,1.56,1.56,0,0,1-.6.1,1.86,1.86,0,0,1-1.76-1.2A2.21,2.21,0,0,1,269.63,435Zm2.16,1a1.23,1.23,0,0,0,.45-.07,1.4,1.4,0,0,0,.33-.18,1.19,1.19,0,0,0,.24-.23l.17-.22v-1.58h-.39a2.78,2.78,0,0,0-1.31.3.94.94,0,0,0-.45.87,1.19,1.19,0,0,0,.25.83A.9.9,0,0,0,271.79,436Zm8.09.85v-4.62a2.17,2.17,0,0,0-.3-1.31,1.1,1.1,0,0,0-.93-.4,1.45,1.45,0,0,0-.89.27,3.23,3.23,0,0,0-.57.52v5.53H276v-7.17h1.1v.81h0a1.43,1.43,0,0,1,.19-.26,1.91,1.91,0,0,1,.39-.33,2.66,2.66,0,0,1,.57-.28,2.14,2.14,0,0,1,.74-.12,2.51,2.51,0,0,1,.86.14,1.55,1.55,0,0,1,.65.46,2.2,2.2,0,0,1,.42.81,4.4,4.4,0,0,1,.15,1.23v4.71Zm2.68-3.48a5.1,5.1,0,0,1,.28-1.82,3.35,3.35,0,0,1,.73-1.18,2.54,2.54,0,0,1,1-.63,3.57,3.57,0,0,1,1.13-.19,2.88,2.88,0,0,1,.59.05,1.85,1.85,0,0,1,.42.13v-3.44l1.21-.14v10.7h-1.1V436h0a1.79,1.79,0,0,1-.16.25,1.69,1.69,0,0,1-.33.31,2,2,0,0,1-.52.27,2.17,2.17,0,0,1-.73.11,2.34,2.34,0,0,1-1-.2,2.08,2.08,0,0,1-.8-.64,3.38,3.38,0,0,1-.54-1.14A6.13,6.13,0,0,1,282.56,433.33Zm2.83,2.58a1.53,1.53,0,0,0,.5-.08,1.55,1.55,0,0,0,.66-.42,1.66,1.66,0,0,0,.17-.21v-4.42a1.78,1.78,0,0,0-.38-.18,1.72,1.72,0,0,0-.54-.07,2.13,2.13,0,0,0-.78.14,1.52,1.52,0,0,0-.63.47,2.45,2.45,0,0,0-.42.85,4.55,4.55,0,0,0-.16,1.29,5.16,5.16,0,0,0,.13,1.25,2.3,2.3,0,0,0,.35.81,1.35,1.35,0,0,0,.51.44A1.38,1.38,0,0,0,285.39,435.92Zm12.48.9-2.13-4.23-.34,0h-.92v4.2h-1.29V426.5h1.92a4.29,4.29,0,0,1,2.75.73,2.62,2.62,0,0,1,.89,2.16,3.39,3.39,0,0,1-.43,1.76,2.76,2.76,0,0,1-1.33,1.12l2.41,4.54Zm-.52-7.35a1.83,1.83,0,0,0-.54-1.46,2.56,2.56,0,0,0-1.7-.47h-.63v4H295a2.41,2.41,0,0,0,1.74-.55A2.09,2.09,0,0,0,297.35,429.46Zm7.69,2.6c0,.31,0,.58,0,.8s0,.42-.06.59h-3.65a3.21,3.21,0,0,0,.54,1.87,1.69,1.69,0,0,0,1.39.6,1.94,1.94,0,0,0,.57-.08,2.08,2.08,0,0,0,.44-.18,2.27,2.27,0,0,0,.31-.21l.18-.17.45.85-.22.22a2.07,2.07,0,0,1-.4.29,3,3,0,0,1-.63.25,3.28,3.28,0,0,1-.88.1,3.17,3.17,0,0,1-1.21-.22,2.28,2.28,0,0,1-.92-.69,3.35,3.35,0,0,1-.59-1.2,6.44,6.44,0,0,1-.21-1.74,5.63,5.63,0,0,1,.22-1.65,3.25,3.25,0,0,1,.59-1.14,2.35,2.35,0,0,1,.86-.66,2.58,2.58,0,0,1,1.06-.22,2,2,0,0,1,1.61.65A2.86,2.86,0,0,1,305,432.06Zm-2.26-1.61a1.2,1.2,0,0,0-1,.54,3,3,0,0,0-.45,1.55h2.6a1.52,1.52,0,0,0,0-.22c0-.09,0-.2,0-.31a1.94,1.94,0,0,0-.3-1.16A1,1,0,0,0,302.78,430.45Zm6.95.64a3.11,3.11,0,0,0-.43-.37,1.34,1.34,0,0,0-.82-.23,1.06,1.06,0,0,0-.73.23.69.69,0,0,0-.26.54,1,1,0,0,0,.23.67,3.22,3.22,0,0,0,.71.56l.45.27a4.44,4.44,0,0,1,1.14.93,2.13,2.13,0,0,1-.17,2.73,2.3,2.3,0,0,1-1.69.58,2.88,2.88,0,0,1-.76-.09,3.3,3.3,0,0,1-.57-.21,1.93,1.93,0,0,1-.41-.26,2.76,2.76,0,0,1-.27-.26l.58-1,.22.21a1.83,1.83,0,0,0,.31.23,1.8,1.8,0,0,0,.4.19,1.57,1.57,0,0,0,.52.08,1.23,1.23,0,0,0,.82-.24.73.73,0,0,0,.28-.58,1.29,1.29,0,0,0-.07-.44,1.05,1.05,0,0,0-.2-.34,1.93,1.93,0,0,0-.33-.28l-.45-.3-.45-.28a4.35,4.35,0,0,1-1-.91,1.92,1.92,0,0,1-.38-1.23,1.7,1.7,0,0,1,.16-.74A1.75,1.75,0,0,1,307,430a2.12,2.12,0,0,1,.66-.39,2.31,2.31,0,0,1,.81-.14,2.66,2.66,0,0,1,.71.08,2,2,0,0,1,.51.21,2.56,2.56,0,0,1,.36.25l.23.22Zm6.71,1c0,.31,0,.58,0,.8s0,.42-.06.59h-3.64a3.2,3.2,0,0,0,.54,1.87,1.69,1.69,0,0,0,1.39.6,1.94,1.94,0,0,0,.57-.08,2.12,2.12,0,0,0,.44-.18,2.39,2.39,0,0,0,.31-.21l.18-.17.45.85-.22.22a2,2,0,0,1-.4.29,3,3,0,0,1-.63.25,3.28,3.28,0,0,1-.88.1,3.16,3.16,0,0,1-1.21-.22,2.31,2.31,0,0,1-.92-.69,3.34,3.34,0,0,1-.58-1.2,6.35,6.35,0,0,1-.21-1.74,5.64,5.64,0,0,1,.22-1.65,3.28,3.28,0,0,1,.59-1.14,2.38,2.38,0,0,1,.87-.66,2.59,2.59,0,0,1,1.05-.22,2,2,0,0,1,1.61.65A2.85,2.85,0,0,1,316.44,432.06Zm-2.26-1.61a1.21,1.21,0,0,0-1,.54,3,3,0,0,0-.44,1.55h2.6a1.5,1.5,0,0,0,0-.22c0-.09,0-.2,0-.31a1.94,1.94,0,0,0-.3-1.16A1,1,0,0,0,314.18,430.45Zm3.45,4.54a2.09,2.09,0,0,1,.24-1,2,2,0,0,1,.64-.68,2.67,2.67,0,0,1,.94-.37,5.68,5.68,0,0,1,1.15-.11H321v-.69a1.86,1.86,0,0,0-.32-1.25,1.16,1.16,0,0,0-.9-.34,1.61,1.61,0,0,0-.9.23,5.81,5.81,0,0,0-.57.41l-.51-.81a3.86,3.86,0,0,1,.31-.27,2.64,2.64,0,0,1,.45-.29,3.14,3.14,0,0,1,.61-.22,3,3,0,0,1,.77-.09,2.15,2.15,0,0,1,1.67.61,2.86,2.86,0,0,1,.56,2v3.27c0,.31,0,.61,0,.9s0,.49.06.59h-1.14l0-.79h0a2,2,0,0,1-.18.31,1.52,1.52,0,0,1-.3.31,1.81,1.81,0,0,1-.43.25,1.55,1.55,0,0,1-.6.1,1.88,1.88,0,0,1-.75-.15,1.84,1.84,0,0,1-.61-.42,1.9,1.9,0,0,1-.4-.63A2.26,2.26,0,0,1,317.63,435Zm2.16,1a1.26,1.26,0,0,0,.45-.07,1.49,1.49,0,0,0,.33-.18,1.14,1.14,0,0,0,.24-.23l.17-.22v-1.58h-.39a2.76,2.76,0,0,0-1.31.3.93.93,0,0,0-.45.87,1.2,1.2,0,0,0,.25.83A.91.91,0,0,0,319.79,436Zm7.33-5.26-.19-.08a1.45,1.45,0,0,0-.4,0,1.23,1.23,0,0,0-.89.31,1.81,1.81,0,0,0-.45.66v5.26H324v-7.17h1.1v1h0a2.38,2.38,0,0,1,.19-.41,1.48,1.48,0,0,1,.3-.36,1.36,1.36,0,0,1,.42-.25,1.71,1.71,0,0,1,.59-.09,1.52,1.52,0,0,1,.41,0l.24.07Zm5,.33-.14-.13a1.59,1.59,0,0,0-.24-.18,1.62,1.62,0,0,0-.36-.16,1.47,1.47,0,0,0-.47-.07,1.85,1.85,0,0,0-.72.14,1.44,1.44,0,0,0-.58.46,2.37,2.37,0,0,0-.39.81,4.65,4.65,0,0,0-.14,1.22,6.09,6.09,0,0,0,.12,1.33,2.53,2.53,0,0,0,.35.86,1.28,1.28,0,0,0,.54.46,1.71,1.71,0,0,0,.71.14,1.52,1.52,0,0,0,.84-.2,2.79,2.79,0,0,0,.41-.31l.49.84a2.3,2.3,0,0,1-.21.22,2,2,0,0,1-.37.25,2.45,2.45,0,0,1-.54.2,3,3,0,0,1-.74.08,3.14,3.14,0,0,1-1.12-.19,2.19,2.19,0,0,1-.91-.64A3.25,3.25,0,0,1,328,435a6,6,0,0,1-.22-1.78,5,5,0,0,1,.27-1.75,3.27,3.27,0,0,1,.7-1.16,2.7,2.7,0,0,1,1-.64,3,3,0,0,1,1.06-.2,3.05,3.05,0,0,1,.71.07,2.38,2.38,0,0,1,.52.19,1.64,1.64,0,0,1,.36.24l.23.21Zm5.67,5.78v-4.62a2.18,2.18,0,0,0-.31-1.31,1.1,1.1,0,0,0-.93-.4,1.44,1.44,0,0,0-.89.27,3.35,3.35,0,0,0-.57.52v5.53h-1.2V426.25l1.2-.14v4.26h0l.19-.24a1.67,1.67,0,0,1,.35-.3,2.42,2.42,0,0,1,.54-.26,2.27,2.27,0,0,1,.75-.11,1.89,1.89,0,0,1,1.49.61,3,3,0,0,1,.55,2v4.71Z" transform="translate(-219.83 -364.84)"/><path class="a" d="M245.23,405.41c1.28,2,2.28,2,3.8,2a10.84,10.84,0,0,1-2.47-2.83l-2.34-3.76a5.57,5.57,0,0,0-1.72-3.05,3,3,0,0,0,.7-.35c-1.53,0-3-.78-3.87-.78a.78.78,0,0,0-.88.75c0,.47.52,1,1.42,1a4.79,4.79,0,0,0,.75-.07,3.58,3.58,0,0,1,.88,2.17c0,1.64-2,2.93-3.94,2.93h-.33a4.45,4.45,0,0,1-.77-1.87c0-1.31.85-2.37.85-3.67a2.43,2.43,0,0,0-.54-1.51,2.26,2.26,0,0,0,.57-.69,1.39,1.39,0,0,1-.55.07c-.95,0-1.72-.25-2.47-.25-.43,0-.55.13-.55.26a.3.3,0,0,0,0,.12,2.53,2.53,0,0,0-.49-.14,3.85,3.85,0,0,0-.72-.06c-.92,0-1.24.39-1.24.72a2.81,2.81,0,0,0,.47,1.18,2.78,2.78,0,0,1,1-.3c.49,0,.92.46,1.15,1a4.32,4.32,0,0,1-.72.05,5.45,5.45,0,0,1-1.62-.32s0,0,0,0,.25.46.75.64a9.68,9.68,0,0,0,1.8.37.79.79,0,0,1-.35.4.21.21,0,0,1-.12,0,8.19,8.19,0,0,1-1.75-.53s0,0,0,0c0,.35.89,1.11,1.69,1.4a9,9,0,0,0-1.89,3.06h-.33c-2,0-3.94-1.28-3.94-2.93a3.58,3.58,0,0,1,.88-2.17,4.78,4.78,0,0,0,.75.07c.9,0,1.38-.48,1.42-1a.78.78,0,0,0-.88-.75c-.83,0-2.34.78-3.87.78a3,3,0,0,0,.7.35,5.57,5.57,0,0,0-1.72,3.05l-2.34,3.76a10.86,10.86,0,0,1-2.48,2.83c1.51,0,2.52,0,3.8-2l1.2-1.93a5.23,5.23,0,0,0,.33.73L222.76,408a10.8,10.8,0,0,1-2.48,2.83c1.51,0,2.52,0,3.8-2l2.05-3.3c.15.16.31.32.49.48l-2.9,4.66a10.77,10.77,0,0,1-2.48,2.83c1.51,0,2.52,0,3.8-2l2.82-4.54.57.34L225,412.88a10.77,10.77,0,0,1-2.47,2.83c1.51,0,2.52,0,3.8-2l3.55-5.7.64.23-4,6.44A10.91,10.91,0,0,1,224,417.5c1.51,0,2.52,0,3.8-2l4.27-6.87.13,0a3.57,3.57,0,0,1,.2,1.06c0,2.16-1.41,4.06-3.1,5.54a1.32,1.32,0,0,0,.47.06,4.38,4.38,0,0,0,.73,0,17.54,17.54,0,0,1-1.66,2.65,12.3,12.3,0,0,0-1.89-.18c-.55,0-.61.32-.61.61a1.46,1.46,0,0,0,.51,1.13c.1-.26.31-.6,1.33-.6h.1c-.3.33-1.23,1.09-1.23,1.7a1.12,1.12,0,0,0,1,1,1.25,1.25,0,0,1,0-.34,2.63,2.63,0,0,1,.8-1.48,1.75,1.75,0,0,0,0,.25c0,1.17.1,1.71.84,1.71a1.18,1.18,0,0,0,.7-.26,1.6,1.6,0,0,1-.5-1.45c0-.17,0-.34,0-.57a3.09,3.09,0,0,0,0-.49,3.42,3.42,0,0,1,.57,0s1.05-.08,1.3.46c.29-.26.7-.63.7-1s-.13-.58-.67-.58c-.2,0-.85.13-1.39.13a13.61,13.61,0,0,1,1.35-2,1.57,1.57,0,0,0,.51.79,5.57,5.57,0,0,1,1-2.66,13,13,0,0,1,.19,2.31c0,2.9-.7,5-2.17,5.46a1.27,1.27,0,0,0,1,.64c.54,0,.83-.61,1.13-1.19.16.43.59,1.47,1,1.47s.86-1,1-1.47c.3.58.59,1.19,1.14,1.19a1.27,1.27,0,0,0,1-.64c-1.48-.41-2.17-2.55-2.17-5.46a13.06,13.06,0,0,1,.19-2.31,5.57,5.57,0,0,1,1,2.66,1.56,1.56,0,0,0,.51-.79,13.77,13.77,0,0,1,1.35,2c-.54,0-1.18-.13-1.39-.13-.54,0-.67.31-.67.58s.41.78.7,1c.25-.55,1.3-.46,1.3-.46a3.42,3.42,0,0,1,.58,0,3.1,3.1,0,0,0,0,.49c0,.23,0,.4,0,.57a1.6,1.6,0,0,1-.5,1.45,1.18,1.18,0,0,0,.7.26c.74,0,.85-.54.85-1.71a2,2,0,0,0,0-.25,2.63,2.63,0,0,1,.8,1.48,1.21,1.21,0,0,1,0,.34,1.12,1.12,0,0,0,1-1c0-.61-.93-1.37-1.23-1.7h.1c1,0,1.23.34,1.33.6a1.46,1.46,0,0,0,.51-1.13c0-.29-.06-.61-.61-.61a12.3,12.3,0,0,0-1.89.18,17.51,17.51,0,0,1-1.66-2.65,4.37,4.37,0,0,0,.73,0,1.32,1.32,0,0,0,.47-.06c-1.69-1.47-3.1-3.38-3.1-5.54a3.6,3.6,0,0,1,.2-1.06l.13,0,4.27,6.87c1.28,2,2.28,2,3.8,2a10.86,10.86,0,0,1-2.47-2.83l-4-6.44L239,408l3.55,5.7c1.28,2,2.28,2,3.8,2a10.77,10.77,0,0,1-2.47-2.83l-3.45-5.54L241,407l2.82,4.54c1.28,2,2.28,2,3.79,2a10.81,10.81,0,0,1-2.47-2.83l-2.89-4.66c.17-.15.33-.31.48-.48l2.05,3.3c1.28,2,2.28,2,3.8,2a10.81,10.81,0,0,1-2.48-2.83l-2.38-3.83a5.34,5.34,0,0,0,.33-.73ZM226.09,401a4.21,4.21,0,0,1,1.4-2.88l.26.06a3.75,3.75,0,0,0-1.07,2.33c0,2.09,2.23,3.91,4.75,3.91,0,.18,0,.37,0,.56a7.69,7.69,0,0,0,0,.87C228.61,405.83,226.09,403.51,226.09,401ZM230,418.17l0,0h0a8.82,8.82,0,0,0,1.45-.1,2.6,2.6,0,0,1,.34,0c.21,0,.37,0,.37.28a1,1,0,0,1-.4.6,1.79,1.79,0,0,0-1.3-.33,6.76,6.76,0,0,0-.84.08h-.07v.09a4.43,4.43,0,0,1,.05.65V420a2,2,0,0,0,.33,1.37.77.77,0,0,1-.23,0c-.42,0-.54-.19-.54-1.41,0-.25,0-.48,0-.63v-.23l-.05,0a3.34,3.34,0,0,0-1.31,2,.88.88,0,0,1-.39-.61c0-.35.52-.88,1.13-1.49l.35-.35,0,0-.11,0a2.46,2.46,0,0,0-.58-.1,1.76,1.76,0,0,0-1.37.42,1.45,1.45,0,0,1-.17-.65.36.36,0,0,1,.07-.26A.33.33,0,0,1,227,418h0a14,14,0,0,1,2,.19h0v0a17.77,17.77,0,0,0,1.86-3,.77.77,0,0,1,.31-.06c.28,0,.36.19.44.48A9.77,9.77,0,0,0,230,418.17Zm7.72-3a.77.77,0,0,1,.31.06,17.81,17.81,0,0,0,1.86,3v0h0a14,14,0,0,1,2-.19h0a.33.33,0,0,1,.23.06.36.36,0,0,1,.07.26,1.45,1.45,0,0,1-.17.65,1.76,1.76,0,0,0-1.37-.42,2.46,2.46,0,0,0-.58.1H240l-.06,0,.39.4c.61.61,1.13,1.14,1.13,1.49a.89.89,0,0,1-.39.61,3.35,3.35,0,0,0-1.31-2l-.05,0v.23c0,.15,0,.38,0,.63,0,1.22-.12,1.41-.55,1.41a.76.76,0,0,1-.23,0,2,2,0,0,0,.33-1.37v-.57a4.44,4.44,0,0,1,.05-.65v-.09h-.07a6.76,6.76,0,0,0-.84-.08,1.78,1.78,0,0,0-1.3.33,1,1,0,0,1-.4-.6c0-.26.16-.28.36-.28a2.61,2.61,0,0,1,.34,0,8.8,8.8,0,0,0,1.45.1h0l0,0a9.78,9.78,0,0,0-1.66-2.52C237.32,415.35,237.4,415.16,237.68,415.16Zm-3.31-16.7a2.63,2.63,0,0,0-.52-1,1.44,1.44,0,0,0-1.07-.57,2.63,2.63,0,0,0-.84.21,2.28,2.28,0,0,1-.26-.73c0-.18.31-.37.89-.37,1.29,0,2.06.59,2.06,1.57A2.34,2.34,0,0,1,234.37,398.46Zm.58-1.28a1.71,1.71,0,0,0-.31-.74c0-.25.11-.5.52-.3-.22.23,0,.63,0,.63s.45-.21.36-.51C236.13,396.42,235.65,397.32,234.95,397.19Zm2.51,8.66a7.18,7.18,0,0,0,.05-.87c0-.16,0-.35,0-.56,2.49,0,4.68-1.84,4.68-3.91a3.75,3.75,0,0,0-1.07-2.33l.26-.06a4.21,4.21,0,0,1,1.4,2.88C242.76,403.49,240.28,405.8,237.46,405.85Z" transform="translate(-219.83 -364.84)"/><polygon class="b" points="39.3 82.02 41.17 82.02 41.17 107.13 36.79 107.13 36.79 82.02 39.3 82.02"/><polygon class="c" points="39.3 56.78 41.17 56.78 41.17 82.02 36.79 82.02 36.79 56.78 39.3 56.78"/><polygon class="a" points="41.17 31.8 41.17 56.91 39.3 56.91 36.79 56.91 36.79 31.8 41.17 31.8"/><path d="M270.78,369.37v.18a1,1,0,0,0,1,1.12c.63,0,1.11-.27,1.11-1,0-1.39-2.8-1.23-2.8-3.12a1.65,1.65,0,0,1,1.83-1.7,1.54,1.54,0,0,1,1.73,1.83h-.83c0-.68-.21-1.14-1-1.14a.87.87,0,0,0-1,.92c0,1.38,2.8,1.18,2.8,3.17,0,1.32-.91,1.74-1.94,1.74-1.84,0-1.84-1.4-1.82-2Zm4.29,1.87V365h1.85a1.56,1.56,0,0,1,1.74,1.79,1.62,1.62,0,0,1-1.75,1.72h-1v2.76Zm.79-3.45h.87a1,1,0,0,0,1.11-1.07c0-1-.71-1-.88-1h-1.1Zm3.88,1.16v-2.06a2,2,0,1,1,3.92,0v2.06c0,1.74-.64,2.42-2,2.42S279.75,370.68,279.75,368.94Zm3.11,0v-2.12c0-1.31-.9-1.35-1.15-1.35s-1.15,0-1.15,1.35V369c0,1.37.4,1.72,1.15,1.72S282.86,370.35,282.86,369Zm6.52-4v6.27h-1.09l-2.46-5.43h0v5.43h-.71V365h1.12l2.43,5.36h0V365Zm2.06,4.4v.18a1,1,0,0,0,1,1.12c.63,0,1.12-.27,1.12-1,0-1.39-2.8-1.23-2.8-3.12a1.65,1.65,0,0,1,1.83-1.7,1.54,1.54,0,0,1,1.73,1.83h-.83c0-.68-.21-1.14-1-1.14a.87.87,0,0,0-1,.92c0,1.38,2.8,1.18,2.8,3.17,0,1.32-.91,1.74-1.93,1.74-1.84,0-1.84-1.4-1.82-2Zm4.17-.42v-2.06a2,2,0,1,1,3.93,0v2.06c0,1.74-.64,2.42-2,2.42S295.6,370.68,295.6,368.94Zm3.11,0v-2.12c0-1.31-.9-1.35-1.15-1.35s-1.15,0-1.15,1.35V369c0,1.37.4,1.72,1.15,1.72S298.71,370.35,298.71,369Zm3-.62v2.88h-.79V365H303a1.41,1.41,0,0,1,1.49,1.56A1.35,1.35,0,0,1,303.4,368v0c.72.11,1,.36,1,1.61a9.42,9.42,0,0,0,.21,1.64h-.83a7.18,7.18,0,0,1-.24-2.08.82.82,0,0,0-.94-.8Zm0-.69h1.19c.57,0,.85-.5.85-1a.85.85,0,0,0-.84-1h-1.2Zm4,3.57V365h3.21v.69h-2.42v2h2.25v.69h-2.25v2.17H309v.69Zm4.34-6.27H312a1.66,1.66,0,0,1,1.68,1,6.4,6.4,0,0,1,.28,2,5.27,5.27,0,0,1-.38,2.53c-.34.54-1,.81-2.06.81h-1.43Zm.79,5.57h.75c1.11,0,1.51-.42,1.51-1.87V367.4c0-1.27-.39-1.74-1.22-1.74h-1Zm6.46.69V365h2a1.41,1.41,0,0,1,1.39.64,1.68,1.68,0,0,1,.25.83,1.3,1.3,0,0,1-1.07,1.48v0a1.33,1.33,0,0,1,1.28,1.5c0,1.6-1.16,1.76-1.87,1.76Zm.79-3.63h1.16a1,1,0,0,0,0-1.94h-1.12Zm0,2.93h1.12a1.06,1.06,0,0,0,1.15-1.07c0-1-.62-1.17-1.43-1.17h-.85Zm7.15-5.57h.8l-1.7,3.88v2.39h-.79v-2.39L321.88,365h.89l1.21,3Zm7,0v.69h-1.64v5.57h-.79v-5.57h-1.64V365Zm.87,6.27V365h.8v2.71h2.19V365h.8v6.27h-.8v-2.86h-2.19v2.86Zm5.23,0V365h3.21v.69h-2.42v2h2.24v.69h-2.24v2.17h2.47v.69Z" transform="translate(-219.83 -364.84)"/></svg>