<?xml version="1.0" encoding="utf-8"?>
<!-- Generator: Adobe Illustrator 16.0.3, SVG Export Plug-In . SVG Version: 6.00 Build 0)  -->
<!DOCTYPE svg PUBLIC "-//W3C//DTD SVG 1.1//EN" "http://www.w3.org/Graphics/SVG/1.1/DTD/svg11.dtd">
<svg version="1.1" id="Ebene_1" xmlns="http://www.w3.org/2000/svg" xmlns:xlink="http://www.w3.org/1999/xlink" x="0px" y="0px"
	 width="345.833px" height="132.5px" viewBox="0 0 345.833 132.5" enable-background="new 0 0 345.833 132.5" xml:space="preserve">
<g>
	<defs>
		<rect id="SVGID_1_" x="3.333" y="5.136" width="341.175" height="126.254"/>
	</defs>
	<clipPath id="SVGID_2_">
		<use xlink:href="#SVGID_1_"  overflow="visible"/>
	</clipPath>
	<path clip-path="url(#SVGID_2_)" d="M343.572,125.969c0,0.225-0.04,0.465-0.106,0.678c-0.333,0.916-1.117,1.436-1.981,1.436
		c-1.502,0-2.261-1.236-2.261-2.674c0-1.688,0.932-2.791,2.287-2.791c1.05,0,1.715,0.678,1.981,1.449
		c0.066,0.188,0.08,0.385,0.08,0.625V125.969z M344.208,123.881c0-0.664,0.014-1.168,0.054-1.648h-0.584l-0.04,1.076h-0.025
		c-0.267-0.531-0.892-1.221-2.154-1.221c-1.41,0-2.871,1.168-2.871,3.389c0,1.742,1.129,3.135,2.738,3.135
		c1.143,0,1.888-0.582,2.22-1.234h0.027v0.904c0,1.887-0.972,2.578-2.314,2.578c-0.824,0-1.449-0.238-1.9-0.531l-0.227,0.506
		c0.492,0.371,1.303,0.557,2.034,0.557c0.718,0,1.583-0.199,2.168-0.756c0.531-0.506,0.875-1.318,0.875-2.951V123.881z
		 M332.06,128.611h0.638v-3.947c0-0.199,0.039-0.412,0.079-0.57c0.253-0.824,1.023-1.463,1.915-1.463
		c1.316,0,1.769,1.051,1.769,2.207v3.773h0.636v-3.828c0-2.391-1.62-2.695-2.231-2.695c-1.037,0-1.849,0.582-2.194,1.301h-0.026
		l-0.039-1.156h-0.598c0.04,0.506,0.053,0.945,0.053,1.529V128.611z M329.986,122.232h-0.637v3.977c0,0.252-0.053,0.504-0.119,0.703
		c-0.279,0.639-0.957,1.289-1.889,1.289c-1.264,0-1.688-0.996-1.688-2.379v-3.59h-0.637v3.709c0,2.406,1.367,2.816,2.179,2.816
		c1.131,0,1.861-0.689,2.181-1.287h0.027l0.04,1.141h0.596c-0.04-0.49-0.053-0.996-0.053-1.555V122.232z M318.011,128.611h0.637
		v-3.895c0-0.266,0.013-0.438,0.079-0.637c0.279-0.785,1.024-1.436,1.929-1.436c1.303,0,1.755,1.037,1.755,2.193v3.773h0.637v-3.84
		c0-2.379-1.621-2.684-2.219-2.684c-0.479,0-0.918,0.133-1.29,0.371c-0.372,0.211-0.678,0.557-0.864,0.916h-0.026v-4.211h-0.637
		V128.611z M316.375,127.83c-0.345,0.158-0.837,0.371-1.595,0.371c-1.476,0-2.525-1.09-2.525-2.766c0-1.488,0.877-2.805,2.592-2.805
		c0.704,0,1.196,0.199,1.502,0.373l0.227-0.52c-0.24-0.172-0.892-0.396-1.675-0.396c-1.901,0-3.282,1.381-3.282,3.4
		c0,1.916,1.222,3.258,3.056,3.258c0.93,0,1.595-0.279,1.874-0.412L316.375,127.83z M306.766,128.309
		c0.426,0.264,1.01,0.438,1.62,0.438c1.305,0,2.153-0.73,2.153-1.82c0-0.971-0.61-1.49-1.647-1.889
		c-0.864-0.359-1.316-0.65-1.316-1.316c0-0.584,0.426-1.104,1.236-1.104c0.64,0,1.052,0.227,1.276,0.387l0.239-0.52
		c-0.318-0.225-0.823-0.396-1.408-0.396c-1.238,0-1.967,0.809-1.967,1.727c0,0.771,0.57,1.342,1.621,1.742
		c0.918,0.371,1.343,0.744,1.343,1.449c0,0.664-0.479,1.209-1.49,1.209c-0.571,0-1.09-0.227-1.434-0.439L306.766,128.309z
		 M303.39,128.611h0.637v-3.521c0-0.213,0.013-0.426,0.053-0.611c0.173-1.023,0.798-1.781,1.675-1.781c0.12,0,0.213,0,0.306,0.027
		v-0.611c-0.08-0.012-0.173-0.025-0.266-0.025c-0.864,0-1.529,0.637-1.808,1.434h-0.039l-0.027-1.289h-0.583
		c0.039,0.625,0.053,1.277,0.053,1.914V128.611z M298.871,122.617c1.688,0,2.34,1.609,2.34,2.779c0,1.635-1.05,2.832-2.38,2.832
		c-1.304,0-2.327-1.197-2.327-2.793C296.503,124.066,297.234,122.617,298.871,122.617 M298.883,122.088
		c-1.582,0-3.016,1.207-3.016,3.389c0,1.994,1.274,3.281,2.923,3.281c1.423,0,3.056-1.021,3.056-3.402
		C301.846,123.416,300.652,122.088,298.883,122.088 M293.859,128.611v-5.861h1.701v-0.518h-1.701v-0.357
		c0-1.225,0.238-2.314,1.435-2.314c0.386,0,0.625,0.08,0.812,0.172l0.199-0.49c-0.199-0.105-0.545-0.213-0.957-0.213
		c-0.505,0-1.023,0.172-1.423,0.559c-0.517,0.518-0.702,1.314-0.702,2.301v0.344h-0.918v0.518h0.918v5.861H293.859z
		 M287.799,128.309c0.425,0.264,1.009,0.438,1.62,0.438c1.305,0,2.152-0.73,2.152-1.82c0-0.971-0.609-1.49-1.646-1.889
		c-0.865-0.359-1.316-0.65-1.316-1.316c0-0.584,0.425-1.104,1.236-1.104c0.639,0,1.051,0.227,1.276,0.387l0.239-0.52
		c-0.318-0.225-0.824-0.396-1.409-0.396c-1.237,0-1.966,0.809-1.966,1.727c0,0.771,0.57,1.342,1.619,1.742
		c0.918,0.371,1.345,0.744,1.345,1.449c0,0.664-0.479,1.209-1.49,1.209c-0.571,0-1.09-0.227-1.435-0.439L287.799,128.309z
		 M284.49,121.064v1.168h-1.077v0.518h1.077v4.029c0,0.65,0.105,1.197,0.398,1.529c0.237,0.303,0.623,0.449,1.088,0.449
		c0.387,0,0.678-0.066,0.892-0.158l-0.08-0.477c-0.16,0.053-0.399,0.092-0.731,0.092c-0.678,0-0.931-0.504-0.931-1.316v-4.148h1.821
		v-0.518h-1.821v-1.408L284.49,121.064z M281.392,128.611v-5.861h1.7v-0.518h-1.7v-0.357c0-1.225,0.238-2.314,1.435-2.314
		c0.386,0,0.625,0.08,0.812,0.172l0.198-0.49c-0.198-0.105-0.545-0.213-0.957-0.213c-0.505,0-1.022,0.172-1.422,0.559
		c-0.517,0.518-0.703,1.314-0.703,2.301v0.344h-0.917v0.518h0.917v5.861H281.392z M278.083,126.564c0,0.107-0.014,0.254-0.066,0.387
		c-0.214,0.625-0.824,1.277-1.889,1.277c-0.665,0-1.277-0.412-1.277-1.33c0-1.529,1.836-1.742,3.232-1.703V126.564z M278.719,124.6
		c0-1.131-0.358-2.512-2.206-2.512c-0.57,0-1.289,0.158-1.873,0.543l0.198,0.465c0.465-0.332,1.05-0.479,1.608-0.479
		c1.517-0.014,1.637,1.25,1.637,1.875v0.174c-2.607-0.027-3.895,0.861-3.895,2.34c0,0.85,0.582,1.752,1.873,1.752
		c1.023,0,1.729-0.57,2.047-1.063h0.027l0.092,0.916h0.584c-0.08-0.49-0.093-1.01-0.093-1.514V124.6z M267.689,128.611h0.637v-3.895
		c0-0.266,0.013-0.438,0.08-0.637c0.279-0.785,1.022-1.436,1.928-1.436c1.303,0,1.755,1.037,1.755,2.193v3.773h0.636v-3.84
		c0-2.379-1.619-2.684-2.218-2.684c-0.479,0-0.918,0.133-1.29,0.371c-0.373,0.211-0.679,0.557-0.865,0.916h-0.025v-4.211h-0.637
		V128.611z M266.052,127.83c-0.346,0.158-0.838,0.371-1.595,0.371c-1.476,0-2.526-1.09-2.526-2.766c0-1.488,0.879-2.805,2.592-2.805
		c0.705,0,1.197,0.199,1.502,0.373l0.227-0.52c-0.238-0.172-0.891-0.396-1.675-0.396c-1.9,0-3.281,1.381-3.281,3.4
		c0,1.916,1.222,3.258,3.056,3.258c0.931,0,1.594-0.279,1.875-0.412L266.052,127.83z M256.445,128.309
		c0.424,0.264,1.008,0.438,1.619,0.438c1.305,0,2.153-0.73,2.153-1.82c0-0.971-0.61-1.49-1.647-1.889
		c-0.864-0.359-1.316-0.65-1.316-1.316c0-0.584,0.426-1.104,1.237-1.104c0.638,0,1.051,0.227,1.276,0.387l0.238-0.52
		c-0.318-0.225-0.824-0.396-1.408-0.396c-1.238,0-1.967,0.809-1.967,1.727c0,0.771,0.57,1.342,1.62,1.742
		c0.918,0.371,1.344,0.744,1.344,1.449c0,0.664-0.479,1.209-1.489,1.209c-0.572,0-1.09-0.227-1.436-0.439L256.445,128.309z
		 M249.877,128.611h0.638v-3.947c0-0.199,0.039-0.412,0.08-0.57c0.252-0.824,1.022-1.463,1.913-1.463
		c1.317,0,1.769,1.051,1.769,2.207v3.773h0.637v-3.828c0-2.391-1.62-2.695-2.232-2.695c-1.037,0-1.848,0.582-2.193,1.301h-0.026
		l-0.04-1.156h-0.597c0.04,0.506,0.053,0.945,0.053,1.529V128.611z M243.616,124.852c0.12-0.984,0.731-2.234,2.141-2.234
		c1.543,0,1.915,1.344,1.902,2.234H243.616z M248.294,125.355c0.027-0.119,0.027-0.213,0.027-0.385c0-0.916-0.398-2.883-2.485-2.883
		c-1.649,0-2.87,1.328-2.87,3.455c0,1.875,1.141,3.203,2.977,3.203c1.117,0,1.769-0.279,2.008-0.412l-0.16-0.49
		c-0.357,0.172-0.837,0.357-1.768,0.357c-1.33,0-2.434-0.811-2.434-2.846H248.294z M238.115,128.309
		c0.425,0.264,1.009,0.438,1.621,0.438c1.303,0,2.152-0.73,2.152-1.82c0-0.971-0.609-1.49-1.647-1.889
		c-0.864-0.359-1.316-0.65-1.316-1.316c0-0.584,0.425-1.104,1.237-1.104c0.638,0,1.05,0.227,1.275,0.387l0.239-0.52
		c-0.319-0.225-0.823-0.396-1.409-0.396c-1.236,0-1.967,0.809-1.967,1.727c0,0.771,0.57,1.342,1.621,1.742
		c0.918,0.371,1.344,0.744,1.344,1.449c0,0.664-0.479,1.209-1.49,1.209c-0.571,0-1.09-0.227-1.435-0.439L238.115,128.309z
		 M233.224,128.309c0.424,0.264,1.008,0.438,1.621,0.438c1.303,0,2.151-0.73,2.151-1.82c0-0.971-0.608-1.49-1.647-1.889
		c-0.865-0.359-1.316-0.65-1.316-1.316c0-0.584,0.426-1.104,1.236-1.104c0.64,0,1.051,0.227,1.277,0.387l0.238-0.52
		c-0.318-0.225-0.823-0.396-1.408-0.396c-1.236,0-1.967,0.809-1.967,1.727c0,0.771,0.57,1.342,1.621,1.742
		c0.918,0.371,1.343,0.744,1.343,1.449c0,0.664-0.479,1.209-1.489,1.209c-0.572,0-1.09-0.227-1.435-0.439L233.224,128.309z
		 M231.322,119.854c-0.291,0-0.518,0.268-0.518,0.559c0,0.293,0.199,0.545,0.491,0.545c0.332,0,0.531-0.252,0.531-0.545
		C231.827,120.105,231.613,119.854,231.322,119.854 M231.64,122.232h-0.636v6.379h0.636V122.232z M222.376,128.611l1.529-5.156
		c0.398-1.316,0.65-2.207,0.797-3.031h0.027c0.119,0.838,0.332,1.715,0.69,3.031l1.343,5.156h0.61l2.685-8.957h-0.65l-1.475,5.037
		c-0.32,1.145-0.613,2.115-0.812,3.084h-0.026c-0.146-0.902-0.438-2.02-0.732-3.109l-1.328-5.012h-0.611l-1.462,5.051
		c-0.358,1.17-0.678,2.234-0.823,3.07h-0.027c-0.172-0.836-0.451-1.914-0.744-3.07l-1.303-5.051h-0.65l2.365,8.957H222.376z
		 M215.2,126.033c0,0.199-0.013,0.359-0.066,0.531c-0.266,1.053-1.131,1.664-2.048,1.664c-1.516,0-2.234-1.316-2.234-2.752
		c0-1.65,0.879-2.859,2.274-2.859c1.037,0,1.795,0.705,2.008,1.557c0.054,0.172,0.066,0.412,0.066,0.584V126.033z M215.2,119.164
		v4.053h-0.026c-0.279-0.561-0.984-1.129-2.088-1.129c-1.568,0-2.884,1.328-2.87,3.455c0,1.9,1.168,3.215,2.75,3.215
		c1.185,0,1.942-0.648,2.274-1.354h0.025l0.053,1.207h0.572c-0.041-0.451-0.054-1.01-0.054-1.488v-7.959H215.2z M203.689,128.611
		h0.637v-3.947c0-0.199,0.04-0.412,0.078-0.57c0.254-0.824,1.025-1.463,1.916-1.463c1.316,0,1.769,1.051,1.769,2.207v3.773h0.636
		v-3.828c0-2.391-1.619-2.695-2.231-2.695c-1.037,0-1.849,0.582-2.194,1.301h-0.025l-0.041-1.156h-0.597
		c0.04,0.506,0.054,0.945,0.054,1.529V128.611z M201.613,122.232h-0.635v3.977c0,0.252-0.054,0.504-0.121,0.703
		c-0.278,0.639-0.957,1.289-1.887,1.289c-1.264,0-1.689-0.996-1.689-2.379v-3.59h-0.637v3.709c0,2.406,1.367,2.816,2.18,2.816
		c1.13,0,1.861-0.689,2.18-1.287h0.027l0.039,1.141h0.597c-0.039-0.49-0.054-0.996-0.054-1.555V122.232z M189.281,125.236h3.162
		v-0.557h-3.162V125.236z M187.208,128.611h0.636v-9.447h-0.636V128.611z M185.132,122.232h-0.637v3.977
		c0,0.252-0.053,0.504-0.119,0.703c-0.279,0.639-0.958,1.289-1.889,1.289c-1.264,0-1.688-0.996-1.688-2.379v-3.59h-0.637v3.709
		c0,2.406,1.368,2.816,2.179,2.816c1.131,0,1.862-0.689,2.182-1.287h0.025l0.04,1.141h0.597c-0.039-0.49-0.053-0.996-0.053-1.555
		V122.232z M173.158,128.611h0.637v-3.895c0-0.266,0.013-0.438,0.079-0.637c0.28-0.785,1.024-1.436,1.929-1.436
		c1.303,0,1.756,1.037,1.756,2.193v3.773h0.635v-3.84c0-2.379-1.619-2.684-2.217-2.684c-0.479,0-0.918,0.133-1.291,0.371
		c-0.373,0.211-0.679,0.557-0.865,0.916h-0.026v-4.211h-0.637V128.611z M171.521,127.83c-0.346,0.158-0.838,0.371-1.595,0.371
		c-1.476,0-2.526-1.09-2.526-2.766c0-1.488,0.878-2.805,2.592-2.805c0.705,0,1.197,0.199,1.502,0.373l0.226-0.52
		c-0.239-0.172-0.89-0.396-1.675-0.396c-1.9,0-3.281,1.381-3.281,3.4c0,1.916,1.221,3.258,3.055,3.258
		c0.931,0,1.595-0.279,1.875-0.412L171.521,127.83z M161.914,128.309c0.424,0.264,1.008,0.438,1.62,0.438
		c1.304,0,2.153-0.73,2.153-1.82c0-0.971-0.61-1.49-1.647-1.889c-0.865-0.359-1.317-0.65-1.317-1.316
		c0-0.584,0.425-1.104,1.237-1.104c0.638,0,1.051,0.227,1.276,0.387l0.239-0.52c-0.318-0.225-0.824-0.396-1.409-0.396
		c-1.237,0-1.966,0.809-1.966,1.727c0,0.771,0.57,1.342,1.62,1.742c0.918,0.371,1.344,0.744,1.344,1.449
		c0,0.664-0.479,1.209-1.49,1.209c-0.572,0-1.09-0.227-1.435-0.439L161.914,128.309z M155.347,128.611h0.637v-3.895
		c0-0.266,0.013-0.438,0.079-0.637c0.28-0.785,1.024-1.436,1.929-1.436c1.303,0,1.755,1.037,1.755,2.193v3.773h0.636v-3.84
		c0-2.379-1.62-2.684-2.218-2.684c-0.479,0-0.918,0.133-1.29,0.371c-0.373,0.211-0.679,0.557-0.865,0.916h-0.026v-4.211h-0.637
		V128.611z M153.71,127.83c-0.346,0.158-0.838,0.371-1.595,0.371c-1.476,0-2.526-1.09-2.526-2.766c0-1.488,0.878-2.805,2.592-2.805
		c0.705,0,1.196,0.199,1.502,0.373l0.226-0.52c-0.239-0.172-0.89-0.396-1.675-0.396c-1.9,0-3.281,1.381-3.281,3.4
		c0,1.916,1.221,3.258,3.055,3.258c0.931,0,1.595-0.279,1.875-0.412L153.71,127.83z M144.952,122.617c1.689,0,2.34,1.609,2.34,2.779
		c0,1.635-1.05,2.832-2.38,2.832c-1.303,0-2.327-1.197-2.327-2.793C142.584,124.066,143.316,122.617,144.952,122.617
		 M144.965,122.088c-1.583,0-3.017,1.207-3.017,3.389c0,1.994,1.275,3.281,2.923,3.281c1.423,0,3.057-1.021,3.057-3.402
		C147.929,123.416,146.733,122.088,144.965,122.088 M134.172,119.654v8.957h0.637v-4.479h4.946v4.479h0.636v-8.957h-0.636v3.949
		h-4.946v-3.949H134.172z M127.46,128.611h0.636v-3.521c0-0.213,0.014-0.426,0.054-0.611c0.172-1.023,0.797-1.781,1.674-1.781
		c0.12,0,0.213,0,0.306,0.027v-0.611c-0.08-0.012-0.173-0.025-0.266-0.025c-0.864,0-1.528,0.637-1.807,1.434h-0.04l-0.027-1.289
		h-0.583c0.04,0.625,0.053,1.277,0.053,1.914V128.611z M124.083,120.93c0.332,0,0.518-0.252,0.518-0.518
		c0-0.279-0.213-0.518-0.491-0.518c-0.279,0-0.504,0.252-0.504,0.518S123.792,120.93,124.083,120.93 M121.851,120.93
		c0.305,0,0.491-0.252,0.491-0.518c0-0.279-0.212-0.518-0.491-0.518c-0.279,0-0.504,0.252-0.504,0.518s0.186,0.518,0.478,0.518
		H121.851z M125.398,122.232h-0.636v3.977c0,0.252-0.053,0.504-0.12,0.703c-0.279,0.639-0.957,1.289-1.888,1.289
		c-1.263,0-1.689-0.996-1.689-2.379v-3.59h-0.636v3.709c0,2.406,1.367,2.816,2.179,2.816c1.13,0,1.861-0.689,2.18-1.287h0.027
		l0.04,1.141h0.596c-0.039-0.49-0.053-0.996-0.053-1.555V122.232z M117.743,128.611v-5.861h1.702v-0.518h-1.702v-0.357
		c0-1.225,0.239-2.314,1.436-2.314c0.385,0,0.624,0.08,0.811,0.172l0.199-0.49c-0.199-0.105-0.545-0.213-0.957-0.213
		c-0.505,0-1.024,0.172-1.422,0.559c-0.518,0.518-0.703,1.314-0.703,2.301v0.344h-0.917v0.518h0.917v5.861H117.743z
		 M103.402,128.611h0.636v-3.934c0-0.213,0.04-0.439,0.094-0.611c0.239-0.744,0.917-1.436,1.768-1.436
		c1.037,0,1.583,0.838,1.583,1.994v3.986h0.636v-4.094c0-0.225,0.053-0.438,0.106-0.625c0.253-0.678,0.878-1.262,1.676-1.262
		c1.104,0,1.662,0.85,1.662,2.287v3.693h0.637v-3.762c0-2.418-1.461-2.762-2.086-2.762c-0.678,0-1.104,0.186-1.516,0.529
		c-0.24,0.199-0.479,0.479-0.651,0.863h-0.027c-0.278-0.811-0.956-1.393-1.834-1.393c-1.05,0-1.662,0.543-2.074,1.273h-0.027
		l-0.039-1.129h-0.597c0.04,0.506,0.053,0.945,0.053,1.529V128.611z M101.328,122.232h-0.636v3.977c0,0.252-0.054,0.504-0.12,0.703
		c-0.279,0.639-0.958,1.289-1.888,1.289c-1.264,0-1.689-0.996-1.689-2.379v-3.59h-0.637v3.709c0,2.406,1.368,2.816,2.179,2.816
		c1.131,0,1.862-0.689,2.181-1.287h0.027l0.039,1.141h0.597c-0.04-0.49-0.053-0.996-0.053-1.555V122.232z M92.543,128.611h0.636
		v-3.521c0-0.213,0.013-0.426,0.053-0.611c0.173-1.023,0.798-1.781,1.675-1.781c0.12,0,0.213,0,0.306,0.027v-0.611
		c-0.08-0.012-0.173-0.025-0.266-0.025c-0.864,0-1.529,0.637-1.808,1.434H93.1l-0.026-1.289h-0.583
		c0.039,0.625,0.053,1.277,0.053,1.914V128.611z M88.755,121.064v1.168h-1.077v0.518h1.077v4.029c0,0.65,0.106,1.197,0.397,1.529
		c0.239,0.303,0.624,0.449,1.09,0.449c0.385,0,0.678-0.066,0.89-0.158l-0.08-0.477c-0.159,0.053-0.398,0.092-0.731,0.092
		c-0.677,0-0.93-0.504-0.93-1.316v-4.148h1.821v-0.518h-1.821v-1.408L88.755,121.064z M81.458,128.611h0.637v-3.947
		c0-0.199,0.04-0.412,0.08-0.57c0.252-0.824,1.023-1.463,1.914-1.463c1.317,0,1.769,1.051,1.769,2.207v3.773h0.636v-3.828
		c0-2.391-1.62-2.695-2.232-2.695c-1.037,0-1.848,0.582-2.194,1.301h-0.026l-0.04-1.156h-0.597c0.04,0.506,0.053,0.945,0.053,1.529
		V128.611z M75.195,124.852c0.12-0.984,0.732-2.234,2.141-2.234c1.543,0,1.915,1.344,1.902,2.234H75.195z M79.875,125.355
		c0.027-0.119,0.027-0.213,0.027-0.385c0-0.916-0.398-2.883-2.485-2.883c-1.649,0-2.87,1.328-2.87,3.455
		c0,1.875,1.141,3.203,2.976,3.203c1.117,0,1.769-0.279,2.007-0.412l-0.159-0.49c-0.358,0.172-0.837,0.357-1.768,0.357
		c-1.33,0-2.433-0.811-2.433-2.846H79.875z M67.542,128.611h6.272v-0.529h-5.476v-0.039l5.41-7.963v-0.426h-5.768v0.531h4.958v0.039
		l-5.396,7.977V128.611z M59.938,128.309c0.425,0.264,1.009,0.438,1.621,0.438c1.303,0,2.152-0.73,2.152-1.82
		c0-0.971-0.609-1.49-1.647-1.889c-0.864-0.359-1.317-0.65-1.317-1.316c0-0.584,0.426-1.104,1.237-1.104
		c0.639,0,1.051,0.227,1.277,0.387l0.238-0.52c-0.318-0.225-0.823-0.396-1.408-0.396c-1.237,0-1.967,0.809-1.967,1.727
		c0,0.771,0.57,1.342,1.621,1.742c0.918,0.371,1.343,0.744,1.343,1.449c0,0.664-0.478,1.209-1.489,1.209
		c-0.572,0-1.09-0.227-1.435-0.439L59.938,128.309z M54.168,124.852c0.12-0.984,0.731-2.234,2.141-2.234
		c1.542,0,1.915,1.344,1.901,2.234H54.168z M58.848,125.355c0.026-0.119,0.026-0.213,0.026-0.385c0-0.916-0.397-2.883-2.484-2.883
		c-1.649,0-2.871,1.328-2.871,3.455c0,1.875,1.142,3.203,2.977,3.203c1.117,0,1.768-0.279,2.007-0.412l-0.159-0.49
		c-0.359,0.172-0.837,0.357-1.768,0.357c-1.33,0-2.434-0.811-2.434-2.846H58.848z M46.993,128.611h0.636v-3.895
		c0-0.266,0.014-0.438,0.08-0.637c0.279-0.785,1.024-1.436,1.928-1.436c1.304,0,1.756,1.037,1.756,2.193v3.773h0.636v-3.84
		c0-2.379-1.62-2.684-2.219-2.684c-0.478,0-0.917,0.133-1.29,0.371c-0.372,0.211-0.678,0.557-0.864,0.916h-0.027v-4.211h-0.636
		V128.611z M45.355,127.83c-0.345,0.158-0.837,0.371-1.595,0.371c-1.475,0-2.525-1.09-2.525-2.766c0-1.488,0.877-2.805,2.592-2.805
		c0.704,0,1.196,0.199,1.502,0.373l0.226-0.52c-0.239-0.172-0.891-0.396-1.675-0.396c-1.901,0-3.281,1.381-3.281,3.4
		c0,1.916,1.221,3.258,3.055,3.258c0.931,0,1.595-0.279,1.874-0.412L45.355,127.83z M35.748,128.309
		c0.425,0.264,1.009,0.438,1.621,0.438c1.303,0,2.153-0.73,2.153-1.82c0-0.971-0.61-1.49-1.648-1.889
		c-0.864-0.359-1.317-0.65-1.317-1.316c0-0.584,0.426-1.104,1.237-1.104c0.639,0,1.051,0.227,1.277,0.387l0.238-0.52
		c-0.318-0.225-0.823-0.396-1.408-0.396c-1.237,0-1.967,0.809-1.967,1.727c0,0.771,0.57,1.342,1.621,1.742
		c0.918,0.371,1.343,0.744,1.343,1.449c0,0.664-0.478,1.209-1.489,1.209c-0.572,0-1.09-0.227-1.435-0.439L35.748,128.309z
		 M32.438,121.064v1.168h-1.077v0.518h1.077v4.029c0,0.65,0.106,1.197,0.397,1.529c0.239,0.303,0.624,0.449,1.09,0.449
		c0.385,0,0.678-0.066,0.89-0.158l-0.079-0.477c-0.16,0.053-0.399,0.092-0.732,0.092c-0.677,0-0.93-0.504-0.93-1.316v-4.148h1.821
		v-0.518h-1.821v-1.408L32.438,121.064z M30.124,122.232h-0.636v3.977c0,0.252-0.053,0.504-0.12,0.703
		c-0.279,0.639-0.957,1.289-1.888,1.289c-1.263,0-1.689-0.996-1.689-2.379v-3.59h-0.636v3.709c0,2.406,1.368,2.816,2.179,2.816
		c1.13,0,1.861-0.689,2.18-1.287h0.027l0.04,1.141h0.597c-0.04-0.49-0.054-0.996-0.054-1.555V122.232z M18.945,124.852
		c0.12-0.984,0.731-2.234,2.141-2.234c1.542,0,1.915,1.344,1.901,2.234H18.945z M23.625,125.355
		c0.026-0.119,0.026-0.213,0.026-0.385c0-0.916-0.397-2.883-2.484-2.883c-1.649,0-2.871,1.328-2.871,3.455
		c0,1.875,1.142,3.203,2.977,3.203c1.117,0,1.768-0.279,2.007-0.412l-0.159-0.49c-0.359,0.172-0.837,0.357-1.768,0.357
		c-1.33,0-2.434-0.811-2.434-2.846H23.625z M10.851,120.266c0.386-0.08,0.931-0.148,1.622-0.148c2.886,0,4.149,1.557,4.122,3.83
		c0,2.594-1.422,4.201-4.294,4.201c-0.572,0-1.091-0.014-1.45-0.066V120.266z M10.214,128.611c0.65,0.055,1.301,0.066,1.993,0.066
		c1.728,0,3.084-0.502,3.869-1.367c0.81-0.891,1.168-2.074,1.168-3.389c0-1.357-0.398-2.367-1.115-3.111
		c-0.745-0.785-1.981-1.223-3.617-1.223c-0.851,0-1.608,0.08-2.298,0.199V128.611z"/>
	<path clip-path="url(#SVGID_2_)" d="M199.886,109.48h1.645v-5.588c0-0.287,0.038-0.572,0.135-0.82
		c0.268-0.844,1.033-1.686,2.084-1.686c1.283,0,1.934,1.072,1.934,2.545v5.549h1.645v-5.721c0-0.307,0.058-0.613,0.135-0.842
		c0.287-0.822,1.033-1.531,1.99-1.531c1.357,0,2.008,1.072,2.008,2.852v5.242h1.646v-5.453c0-3.215-1.817-4.018-3.042-4.018
		c-0.88,0-1.492,0.23-2.047,0.65c-0.383,0.287-0.746,0.689-1.033,1.205h-0.039c-0.4-1.09-1.357-1.855-2.621-1.855
		c-1.529,0-2.391,0.822-2.908,1.703h-0.057l-0.076-1.492h-1.474c0.058,0.766,0.077,1.549,0.077,2.506V109.48z M197.092,100.221
		h-1.683v5.682c0,0.307-0.059,0.611-0.154,0.861c-0.307,0.746-1.09,1.531-2.219,1.531c-1.531,0-2.066-1.186-2.066-2.947v-5.127
		h-1.684v5.414c0,3.252,1.74,4.057,3.194,4.057c1.646,0,2.622-0.977,3.062-1.723h0.039l0.096,1.512h1.492
		c-0.059-0.727-0.077-1.568-0.077-2.525V100.221z M183.087,109.48h1.664v-4.936c0-0.287,0.039-0.555,0.078-0.785
		c0.229-1.262,1.07-2.162,2.256-2.162c0.23,0,0.402,0.02,0.574,0.059v-1.588c-0.152-0.039-0.287-0.059-0.478-0.059
		c-1.129,0-2.144,0.785-2.563,2.027h-0.076l-0.059-1.816h-1.473c0.057,0.861,0.076,1.797,0.076,2.889V109.48z M177.137,98.002v2.219
		h-1.435v1.281h1.435v5.051c0,1.09,0.173,1.914,0.651,2.41c0.401,0.461,1.033,0.709,1.816,0.709c0.65,0,1.168-0.096,1.493-0.229
		l-0.077-1.264c-0.21,0.057-0.535,0.115-0.975,0.115c-0.938,0-1.264-0.652-1.264-1.799v-4.994h2.41v-1.281h-2.41v-2.66
		L177.137,98.002z M166.213,109.48h1.684v-5.568c0-0.287,0.038-0.574,0.114-0.783c0.287-0.938,1.148-1.723,2.258-1.723
		c1.588,0,2.143,1.244,2.143,2.736v5.338h1.683v-5.529c0-3.176-1.989-3.941-3.271-3.941c-1.531,0-2.602,0.861-3.061,1.742h-0.039
		l-0.095-1.531h-1.493c0.058,0.766,0.077,1.549,0.077,2.506V109.48z M157.584,103.951c0.134-1.166,0.88-2.736,2.583-2.736
		c1.894,0,2.353,1.664,2.334,2.736H157.584z M164.07,105.156c0.019-0.172,0.058-0.439,0.058-0.783c0-1.703-0.804-4.363-3.827-4.363
		c-2.698,0-4.343,2.201-4.343,4.994s1.703,4.668,4.554,4.668c1.473,0,2.487-0.307,3.08-0.574l-0.287-1.205
		c-0.631,0.268-1.358,0.479-2.564,0.479c-1.683,0-3.138-0.938-3.176-3.215H164.07z M147.521,109.48h7.519v-1.34h-5.415v-0.039
		c0.421-0.477,0.804-0.936,1.186-1.453l4.133-5.377l0.019-1.051h-7.06v1.357h5.013v0.039c-0.421,0.498-0.804,0.938-1.205,1.436
		l-4.19,5.451V109.48z M137.954,109.48h1.684v-5.568c0-0.287,0.038-0.574,0.115-0.783c0.287-0.938,1.148-1.723,2.258-1.723
		c1.588,0,2.142,1.244,2.142,2.736v5.338h1.684v-5.529c0-3.176-1.99-3.941-3.272-3.941c-1.53,0-2.602,0.861-3.061,1.742h-0.038
		l-0.096-1.531h-1.492c0.057,0.766,0.076,1.549,0.076,2.506V109.48z M129.326,103.951c0.134-1.166,0.88-2.736,2.583-2.736
		c1.894,0,2.353,1.664,2.334,2.736H129.326z M135.812,105.156c0.019-0.172,0.057-0.439,0.057-0.783c0-1.703-0.803-4.363-3.826-4.363
		c-2.698,0-4.343,2.201-4.343,4.994s1.702,4.668,4.553,4.668c1.473,0,2.487-0.307,3.08-0.574l-0.286-1.205
		c-0.632,0.268-1.359,0.479-2.564,0.479c-1.684,0-3.138-0.938-3.176-3.215H135.812z M122.534,98.002v2.219h-1.435v1.281h1.435v5.051
		c0,1.09,0.172,1.914,0.65,2.41c0.402,0.461,1.034,0.709,1.818,0.709c0.651,0,1.167-0.096,1.492-0.229l-0.076-1.264
		c-0.211,0.057-0.536,0.115-0.976,0.115c-0.937,0-1.263-0.652-1.263-1.799v-4.994h2.411v-1.281h-2.411v-2.66L122.534,98.002z
		 M117.885,106.361c0,0.174-0.038,0.363-0.096,0.535c-0.268,0.785-1.033,1.551-2.238,1.551c-0.861,0-1.588-0.518-1.588-1.607
		c0-1.799,2.085-2.123,3.922-2.086V106.361z M119.664,109.48c-0.115-0.631-0.153-1.416-0.153-2.219v-3.463
		c0-1.855-0.689-3.789-3.52-3.789c-1.167,0-2.277,0.326-3.042,0.822l0.382,1.111c0.651-0.422,1.55-0.689,2.411-0.689
		c1.894,0,2.105,1.377,2.105,2.143v0.191c-3.578-0.02-5.568,1.205-5.568,3.443c0,1.34,0.957,2.66,2.832,2.66
		c1.32,0,2.315-0.65,2.831-1.379H118l0.134,1.168H119.664z M108.529,105.596c0,0.27-0.019,0.498-0.076,0.729
		c-0.306,1.262-1.34,2.008-2.468,2.008c-1.818,0-2.736-1.549-2.736-3.424c0-2.047,1.033-3.578,2.774-3.578
		c1.263,0,2.181,0.881,2.43,1.951c0.057,0.211,0.076,0.498,0.076,0.709V105.596z M108.529,95.896v5.529h-0.038
		c-0.421-0.746-1.378-1.416-2.793-1.416c-2.258,0-4.171,1.895-4.152,4.975c0,2.813,1.722,4.707,3.96,4.707
		c1.512,0,2.641-0.785,3.157-1.818h0.038l0.077,1.607h1.511c-0.057-0.631-0.076-1.568-0.076-2.393V95.896H108.529z M93.989,109.041
		c0.65,0.383,1.588,0.631,2.602,0.631c2.2,0,3.463-1.148,3.463-2.775c0-1.377-0.823-2.18-2.43-2.793
		c-1.206-0.459-1.76-0.803-1.76-1.568c0-0.689,0.554-1.264,1.549-1.264c0.861,0,1.531,0.307,1.894,0.537l0.421-1.225
		c-0.516-0.307-1.339-0.574-2.276-0.574c-1.99,0-3.196,1.225-3.196,2.717c0,1.109,0.785,2.027,2.449,2.621
		c1.244,0.459,1.722,0.9,1.722,1.703c0,0.766-0.574,1.377-1.798,1.377c-0.842,0-1.722-0.344-2.219-0.67L93.989,109.041z
		 M90.181,105.539c0,0.287-0.038,0.613-0.134,0.898c-0.363,1.072-1.3,1.723-2.334,1.723c-1.817,0-2.736-1.512-2.736-3.328
		c0-2.145,1.148-3.502,2.755-3.502c1.225,0,2.048,0.803,2.354,1.779c0.076,0.229,0.095,0.479,0.095,0.766V105.539z M90.449,100.221
		l-0.076,1.396h-0.039c-0.401-0.766-1.281-1.607-2.889-1.607c-2.123,0-4.17,1.779-4.17,4.916c0,2.564,1.645,4.518,3.941,4.518
		c1.435,0,2.43-0.689,2.946-1.551h0.039v1.033c0,2.334-1.263,3.234-2.985,3.234c-1.148,0-2.105-0.346-2.717-0.729l-0.421,1.281
		c0.746,0.498,1.971,0.766,3.081,0.766c1.167,0,2.468-0.268,3.367-1.109c0.899-0.803,1.32-2.105,1.32-4.229v-5.375
		c0-1.129,0.038-1.875,0.076-2.545H90.449z M73.326,109.48h1.684v-5.568c0-0.287,0.038-0.574,0.114-0.783
		c0.287-0.938,1.148-1.723,2.258-1.723c1.588,0,2.143,1.244,2.143,2.736v5.338h1.683v-5.529c0-3.176-1.989-3.941-3.271-3.941
		c-1.531,0-2.602,0.861-3.061,1.742h-0.039l-0.095-1.531h-1.493c0.058,0.766,0.077,1.549,0.077,2.506V109.48z M70.533,100.221
		h-1.684v5.682c0,0.307-0.057,0.611-0.153,0.861c-0.306,0.746-1.091,1.531-2.219,1.531c-1.531,0-2.067-1.186-2.067-2.947v-5.127
		h-1.683v5.414c0,3.252,1.741,4.057,3.195,4.057c1.645,0,2.621-0.977,3.061-1.723h0.038l0.096,1.512h1.492
		c-0.057-0.727-0.076-1.568-0.076-2.525V100.221z M52.166,109.48h1.683v-5.588c0-0.324,0.019-0.572,0.115-0.803
		c0.306-0.918,1.167-1.684,2.258-1.684c1.588,0,2.143,1.264,2.143,2.756v5.318h1.683v-5.51c0-3.195-1.99-3.961-3.233-3.961
		c-0.632,0-1.225,0.191-1.722,0.479c-0.517,0.287-0.938,0.709-1.205,1.186h-0.039v-5.777h-1.683V109.48z M49.908,107.873
		c-0.478,0.211-1.11,0.459-2.066,0.459c-1.837,0-3.214-1.32-3.214-3.463c0-1.932,1.147-3.5,3.271-3.5
		c0.919,0,1.55,0.209,1.952,0.439l0.382-1.301c-0.459-0.23-1.339-0.479-2.334-0.479c-3.023,0-4.974,2.066-4.974,4.918
		c0,2.83,1.817,4.725,4.611,4.725c1.243,0,2.219-0.307,2.659-0.535L49.908,107.873z M35.368,109.041
		c0.65,0.383,1.588,0.631,2.602,0.631c2.2,0,3.462-1.148,3.462-2.775c0-1.377-0.822-2.18-2.429-2.793
		c-1.206-0.459-1.761-0.803-1.761-1.568c0-0.689,0.555-1.264,1.55-1.264c0.861,0,1.531,0.307,1.894,0.537l0.421-1.225
		c-0.516-0.307-1.339-0.574-2.277-0.574c-1.989,0-3.195,1.225-3.195,2.717c0,1.109,0.785,2.027,2.449,2.621
		c1.244,0.459,1.722,0.9,1.722,1.703c0,0.766-0.574,1.377-1.798,1.377c-0.842,0-1.722-0.344-2.22-0.67L35.368,109.041z
		 M29.762,109.48h1.664v-4.936c0-0.287,0.039-0.555,0.077-0.785c0.229-1.262,1.071-2.162,2.257-2.162c0.23,0,0.402,0.02,0.574,0.059
		v-1.588c-0.153-0.039-0.287-0.059-0.478-0.059c-1.129,0-2.143,0.785-2.564,2.027h-0.076l-0.058-1.816h-1.473
		c0.058,0.861,0.077,1.797,0.077,2.889V109.48z M23.142,101.271c1.99,0,2.774,1.99,2.774,3.561c0,2.084-1.205,3.596-2.812,3.596
		c-1.646,0-2.813-1.531-2.813-3.559C20.291,103.109,21.152,101.271,23.142,101.271 M23.18,100.01c-2.563,0-4.591,1.818-4.591,4.916
		c0,2.928,1.932,4.766,4.438,4.766c2.239,0,4.611-1.492,4.611-4.918C27.638,101.943,25.84,100.01,23.18,100.01 M10.591,109.48h1.665
		v-5.836h4.878v-1.377h-4.878V97.98h5.28v-1.395h-6.945V109.48z"/>
</g>
<polygon fill="#0069B4" points="194.475,78.01 230.33,78.01 230.33,72.623 202.857,72.623 202.857,72.402 229.965,32.184 
	229.965,28.273 196.807,28.273 196.807,33.661 221.73,33.661 221.73,33.881 194.475,74.246 "/>
<g>
	<defs>
		<rect id="SVGID_3_" x="3.333" y="5.136" width="341.175" height="126.254"/>
	</defs>
	<clipPath id="SVGID_4_">
		<use xlink:href="#SVGID_3_"  overflow="visible"/>
	</clipPath>
	<path clip-path="url(#SVGID_4_)" fill="#0069B4" d="M156.354,34.219c1.666-0.367,4.13-0.661,7.39-0.661
		c13.331,0,19.851,7.41,19.778,19.075c0,13.353-7.317,20.982-20.792,20.982c-2.464,0-4.782-0.074-6.376-0.367V34.219z
		 M150.052,78.164c3.188,0.367,6.955,0.586,11.447,0.586c9.491,0,17.026-2.494,21.59-7.115c4.564-4.549,7.028-11.152,7.028-19.221
		c0-7.997-2.536-13.719-6.883-17.754c-4.275-4.035-10.723-6.163-19.779-6.163c-4.999,0-9.563,0.439-13.403,1.026V78.164z"/>
	<path clip-path="url(#SVGID_4_)" fill="#0069B4" d="M301.053,49.081"/>
	<path clip-path="url(#SVGID_4_)" fill="#0069B4" d="M324.891,49.081"/>
</g>
<polygon fill="#0069B4" points="286.782,49.043 288.113,54.272 274.212,54.272 274.212,49.043 "/>
<g>
	<defs>
		<rect id="SVGID_5_" x="3.333" y="5.136" width="341.175" height="126.254"/>
	</defs>
	<clipPath id="SVGID_6_">
		<use xlink:href="#SVGID_5_"  overflow="visible"/>
	</clipPath>
	<path clip-path="url(#SVGID_6_)" fill="#0069B4" d="M243.988,54.627"/>
	<path clip-path="url(#SVGID_6_)" fill="#0069B4" d="M267.827,54.627"/>
</g>
<polygon fill="#0069B4" points="281.572,28.27 286.782,49.025 293.117,49.025 288.296,28.27 "/>
<polyline fill="#0069B4" points="244.074,49.667 244.043,28.273 237.703,28.273 237.703,78.012 244.043,78.012 244.043,49.517 "/>
<polygon fill="#0069B4" points="237.703,28.273 237.703,78.01 244.042,78.01 244.042,54.246 267.801,54.246 267.801,78.01 
	274.214,78.01 274.214,28.273 267.801,28.273 267.801,49.088 244.074,49.085 244.042,28.273 "/>
<g>
	<defs>
		<rect id="SVGID_7_" x="3.333" y="5.136" width="341.175" height="126.254"/>
	</defs>
	<clipPath id="SVGID_8_">
		<use xlink:href="#SVGID_7_"  overflow="visible"/>
	</clipPath>
	<path clip-path="url(#SVGID_8_)" fill="#0069B4" d="M341.566,28.27l-13.904,49.738h-3.146v-7.484h0.138
		c0,0,2.479-12.365,5.051-21.615c2.416-8.693,5.394-20.639,5.394-20.639H341.566z"/>
	<path clip-path="url(#SVGID_8_)" fill="#0069B4" d="M288.113,54.254l5.922,23.753h3.879v-7.367h-0.16c0,0-1.124-5.927-1.538-7.903
		c-0.271-1.3-1.905-8.483-1.905-8.483H288.113z"/>
	<path clip-path="url(#SVGID_8_)" fill="#0069B4" d="M311.617,28.27h-3.145c0,0-6.028,23.305-6.633,25.449
		c-2.595,9.204-3.926,16.921-3.926,16.921h-0.16v7.367h2.914c0,0,6.246-22.84,7.805-28.774c2.204-8.391,3.007-13.364,3.007-13.364
		h0.138V28.27z"/>
	<path clip-path="url(#SVGID_8_)" fill="#0069B4" d="M311.479,28.27h3.627c0,0,5.549,23.279,6.06,25.449
		c0.404,1.722,2.085,9.208,2.341,10.716c0.257,1.507,1.01,6.088,1.01,6.088h0.138v7.484h-3.649c0,0-4.214-17.708-5.898-24.729
		c-0.375-1.563-1.741-7.394-2.111-9.321c-0.552-2.857-1.378-8.088-1.378-8.088h-0.138V28.27z"/>
</g>
<polyline fill="#0069B4" points="267.8,49.517 267.8,78.01 274.214,78.01 274.214,28.274 267.8,28.274 267.8,49.668 "/>
<polygon fill="#0069B4" points="336.802,72.691 338.162,78.027 344.508,78.027 343.267,72.691 "/>
<polygon points="135.357,71.453 137.115,78.359 145.329,78.359 143.723,71.453 "/>
<g>
	<defs>
		<rect id="SVGID_9_" x="3.333" y="5.136" width="341.175" height="126.254"/>
	</defs>
	<clipPath id="SVGID_10_">
		<use xlink:href="#SVGID_9_"  overflow="visible"/>
	</clipPath>
	<path clip-path="url(#SVGID_10_)" d="M89.514,78.484h39.974v-7.111h-28.785V71.17c2.237-2.545,4.272-4.988,6.306-7.736
		l21.97-28.598l0.102-5.586H91.547v7.211h26.65v0.204c-2.238,2.646-4.272,4.987-6.408,7.634L89.514,73.303V78.484z M71.302,57.829
		c0,1.425-0.102,2.646-0.407,3.867c-1.629,6.726-7.126,10.695-13.132,10.695c-9.67,0-14.556-8.243-14.556-18.218
		c0-10.891,5.497-19.033,14.76-19.033c6.718,0,11.604,4.683,12.928,10.383c0.305,1.118,0.407,2.646,0.407,3.765V57.829z
		 M71.302,6.255v29.394h-0.204c-2.239-3.962-7.329-7.518-14.862-7.518c-12.011,0-22.174,10.062-22.072,26.448
		c0,14.961,9.145,25.024,21.054,25.024c8.042,0,14.048-4.164,16.795-9.654h0.203l0.407,8.535h8.027
		c-0.305-3.359-0.407-8.344-0.407-12.719V6.255H71.302z M19.092,78.484v-42.43h11.904V29.25H19.092v-2.646
		c0-7.535,1.933-14.257,9.564-14.257c2.544,0,4.375,0.51,5.698,1.12l1.221-6.909c-1.73-0.711-4.477-1.422-7.631-1.422
		c-4.172,0-8.649,1.32-12.002,4.57c-4.165,3.965-5.689,10.278-5.689,17.202v2.342H3.333v6.804h6.919v42.43H19.092z"/>
</g>
<g>
</g>
<g>
</g>
<g>
</g>
<g>
</g>
<g>
</g>
<g>
</g>
</svg>
